<svg xmlns="http://www.w3.org/2000/svg" version="1.1" xmlns:xlink="http://www.w3.org/1999/xlink" xmlns:svgjs="http://svgjs.dev/svgjs" viewBox="0 0 800 800" opacity="1">
  <defs>
    <filter id="bbburst-blur-1" x="-100%" y="-100%" width="400%" height="400%">
      <feGaussianBlur in="SourceGraphic" stdDeviation="1"></feGaussianBlur>
    </filter>
    <filter id="bbburst-blur-2" x="-100%" y="-100%" width="400%" height="400%">
      <feGaussianBlur in="SourceGraphic" stdDeviation="2"></feGaussianBlur>
    </filter>
    <filter id="bbburst-blur-3" x="-100%" y="-100%" width="400%" height="400%">
      <feGaussianBlur in="SourceGraphic" stdDeviation="4"></feGaussianBlur>
    </filter>
    <filter id="bbburst-blur-4" x="-100%" y="-100%" width="400%" height="400%">
      <feGaussianBlur in="SourceGraphic" stdDeviation="12"></feGaussianBlur>
    </filter>
    <symbol id="bbburst-shape-1" viewBox="0 0 194 167">
      <path d="m97 0 96.129 166.5H.871L97 0Z"></path>
    </symbol>
    <symbol id="bbburst-shape-4" viewBox="0 0 149 143">
      <path d="M71.647 2.781c.898-2.764 4.808-2.764 5.706 0l15.445 47.534a3 3 0 0 0 2.853 2.073h49.98c2.906 0 4.115 3.719 1.764 5.427L106.96 87.193a2.999 2.999 0 0 0-1.09 3.354l15.445 47.534c.898 2.764-2.266 5.062-4.617 3.354l-40.435-29.378a3 3 0 0 0-3.526 0l-40.435 29.378c-2.351 1.708-5.515-.59-4.617-3.354L43.13 90.547a3 3 0 0 0-1.09-3.354L1.605 57.815c-2.35-1.708-1.142-5.427 1.764-5.427h49.98a3 3 0 0 0 2.853-2.073L71.647 2.781Z"></path>
    </symbol>
    <symbol id="bbburst-shape-6" viewBox="0 0 133 116">
      <path d="M59.7487 10.2513c-13.6683-13.66839-35.8291-13.66839-49.4974 0-13.66839 13.6683-13.66839 35.8291 0 49.4974l49.4974-49.4974ZM66.5 66.5 41.7513 91.2487 66.5 115.997l24.7487-24.7483L66.5 66.5Zm56.249-6.7513c13.668-13.6683 13.668-35.8291 0-49.4974-13.669-13.66839-35.8294-13.66839-49.4977 0l49.4977 49.4974Zm-112.4977 0 31.5 31.5 49.4974-49.4974-31.5-31.5-49.4974 49.4974Zm80.9974 31.5 31.5003-31.5-49.4977-49.4974-31.5 31.5 49.4974 49.4974Z"></path>
    </symbol>
    <symbol id="bbburst-shape-8" viewBox="0 0 87 168">
      <path d="m12 12 31.2546 18.0749c16.4102 9.4902 20.014 31.6325 7.4603 45.8369L36.3296 92.1884c-12.5684 14.2206-8.9394 36.3916 7.5068 45.8636L75 156" stroke-width="14" stroke-linecap="round" stroke-linejoin="round"></path>
    </symbol>
    <symbol id="bbburst-shape-10" viewBox="0 0 145 145">
      <circle cx="72.5" cy="72.5" r="61.5" fill="none" stroke-width="22"></circle>
    </symbol>
  </defs>
  <use xlink:href="#bbburst-shape-8" width="49.90960430091253" opacity="0.49296812853234917" transform="matrix(0.9581177559971483,-0.2863745198913285,0.2863745198913285,0.9581177559971483,240.5903306486769,-203.3011570365825)" fill="none" stroke="#2c2891" filter="url(#bbburst-blur-2)"></use>
  <use xlink:href="#bbburst-shape-4" width="35.49199098627494" opacity="0.5232366336481519" transform="matrix(0.8787832934821601,-0.47722104217715255,0.47722104217715255,0.8787832934821601,289.31684584631887,248.95823970119142)" fill="#2c2891" filter="url(#bbburst-blur-2)"></use>
  <use xlink:href="#bbburst-shape-6" width="29.761712400357332" opacity="0.9577771820670032" transform="matrix(0.7446315926480789,0.6674756858720664,-0.6674756858720664,0.7446315926480789,657.6091262013474,111.13908615304962)" fill="#ffa6d5"></use>
  <use xlink:href="#bbburst-shape-10" width="43.55741042998553" opacity="0.2151192284267628" transform="matrix(1.1188509546094183,-0.5573800690458831,0.5573800690458831,1.1188509546094183,166.85972808427584,317.51026163520055)" fill="none" stroke="#ff5c58" filter="url(#bbburst-blur-3)"></use>
  <use xlink:href="#bbburst-shape-6" width="47.04642902734591" opacity="0.2422410664335638" transform="matrix(1.0459849975410027,0.6844087849517628,-0.6844087849517628,1.0459849975410027,657.2295681791752,-375.38890676345255)" fill="#ff5c58" filter="url(#bbburst-blur-3)"></use>
  <use xlink:href="#bbburst-shape-4" width="42.81412254864972" opacity="0.12929195183397812" transform="matrix(1.0305284383415168,0.7074681178465886,-0.7074681178465886,1.0305284383415168,493.92653189389836,327.1439632341892)" fill="#00a19d" filter="url(#bbburst-blur-3)"></use>
  <use xlink:href="#bbburst-shape-10" width="53.61820816514947" opacity="0.1343029296825219" transform="matrix(1.0044517465672111,0.7440273441333181,-0.7440273441333181,1.0044517465672111,436.6824139439981,-333.18177150064344)" fill="none" stroke="#2c2891" filter="url(#bbburst-blur-3)"></use>
  <use xlink:href="#bbburst-shape-4" width="37.64084754362834" opacity="0.14929190438651407" transform="matrix(1.2456936005343746,0.10366992614883858,-0.10366992614883858,1.2456936005343746,571.4555255849195,-450.9104250642117)" fill="#2c2891" filter="url(#bbburst-blur-3)"></use>
  <use xlink:href="#bbburst-shape-8" width="32.25621714332047" opacity="0.6465078368574697" transform="matrix(0.9361324626543253,-0.3516475684044301,0.3516475684044301,0.9361324626543253,385.88307400890994,-41.18188701508194)" fill="none" stroke="#ffbd9b" filter="url(#bbburst-blur-1)"></use>
  <use xlink:href="#bbburst-shape-6" width="54.08084944549125" opacity="-0.056848281166665515" transform="matrix(1.7483319505668997,0.07638972854343166,-0.07638972854343166,1.7483319505668997,720.9394009033336,33.512031716194315)" fill="#ffa6d5" filter="url(#bbburst-blur-4)"></use>
  <use xlink:href="#bbburst-shape-8" width="35.5348666342831" opacity="0.21502066390912322" transform="matrix(1.2443003163533144,0.11923389921931525,-0.11923389921931525,1.2443003163533144,776.0214093748207,-55.4125247034969)" fill="none" stroke="#2c2891" filter="url(#bbburst-blur-3)"></use>
  <use xlink:href="#bbburst-shape-10" width="33.16701359043925" opacity="0.6137763197058899" transform="matrix(0.7941093436564112,-0.607774917479805,0.607774917479805,0.7941093436564112,47.089005448170724,236.89616134859074)" fill="none" stroke="#ffbd9b" filter="url(#bbburst-blur-1)"></use>
  <use xlink:href="#bbburst-shape-4" width="27.95137887145838" opacity="0.7700517668061645" transform="matrix(0.9151110812551677,0.40320182162782686,-0.40320182162782686,0.9151110812551677,514.1960267903546,125.97548209113637)" fill="#ffa6d5" filter="url(#bbburst-blur-1)"></use>
  <use xlink:href="#bbburst-shape-10" width="34.07706019119337" opacity="0.3889597913099966" transform="matrix(0.8013652490383844,0.5981753402085781,-0.5981753402085781,0.8013652490383844,354.1529012381045,25.49863543082097)" fill="none" stroke="#00a19d" filter="url(#bbburst-blur-2)"></use>
  <use xlink:href="#bbburst-shape-8" width="46.36795690448477" opacity="0.22078113888158313" transform="matrix(1.2379911693379575,-0.17285214676490623,0.17285214676490623,1.2379911693379575,61.56082504666168,163.89440474359935)" fill="none" stroke="#ffa6d5" filter="url(#bbburst-blur-3)"></use>
  <use xlink:href="#bbburst-shape-6" width="34.943052085508214" opacity="0.6310359643855841" transform="matrix(0.9541119979128907,-0.29944998820950414,0.29944998820950414,0.9541119979128907,180.02694693423823,-119.9084753170165)" fill="#ffa6d5" filter="url(#bbburst-blur-1)"></use>
  <use xlink:href="#bbburst-shape-10" width="43.26434223079448" opacity="0.1972597702546245" transform="matrix(1.2346336193901308,0.19539658613093921,-0.19539658613093921,1.2346336193901308,92.58266297943285,-139.3474288266121)" fill="none" stroke="#00a19d" filter="url(#bbburst-blur-3)"></use>
  <use xlink:href="#bbburst-shape-10" width="38.78271430955489" opacity="0.4982893093310202" transform="matrix(0.7151322035949896,0.6989892212197368,-0.6989892212197368,0.7151322035949896,654.245843765153,325.87040080794986)" fill="none" stroke="#ffbd9b" filter="url(#bbburst-blur-2)"></use>
  <use xlink:href="#bbburst-shape-6" width="28.963866949990244" opacity="0.603984054597811" transform="matrix(0.9930739678364111,-0.11749082690000383,0.11749082690000383,0.9930739678364111,483.0047162392475,108.93009267982882)" fill="#ff5c58" filter="url(#bbburst-blur-1)"></use>
  <use xlink:href="#bbburst-shape-10" width="50.241416755799634" opacity="-0.05235904953185888" transform="matrix(1.7393988202908104,-0.19233237889376992,0.19233237889376992,1.7393988202908104,-49.395170555741856,49.9130501181462)" fill="none" stroke="#00a19d" filter="url(#bbburst-blur-4)"></use>
  <use xlink:href="#bbburst-shape-10" width="46.706964129425174" opacity="0.42253697709969795" transform="matrix(0.7566568373917281,-0.6538122287234677,0.6538122287234677,0.7566568373917281,-92.35264007077427,-36.022297595931605)" fill="none" stroke="#ffa6d5" filter="url(#bbburst-blur-2)"></use>
  <use xlink:href="#bbburst-shape-8" width="38.29051187057994" opacity="0.1973205392614209" transform="matrix(1.1588805420475172,0.46850388393657183,-0.46850388393657183,1.1588805420475172,915.9538275773185,-158.84402852939547)" fill="none" stroke="#ffa6d5" filter="url(#bbburst-blur-3)"></use>
  <use xlink:href="#bbburst-shape-6" width="27.63530843536983" opacity="0.8258527224588728" transform="matrix(0.7151291288707331,0.698992366940145,-0.698992366940145,0.7151291288707331,647.0695212714402,29.267201802864975)" fill="#2c2891"></use>
  <use xlink:href="#bbburst-shape-4" width="30.786241713142633" opacity="0.5637541713745049" transform="matrix(0.9391419690886414,-0.34352927371085734,0.34352927371085734,0.9391419690886414,444.1901057968312,39.797475197369465)" fill="#ff5c58" filter="url(#bbburst-blur-1)"></use>
  <use xlink:href="#bbburst-shape-10" width="57.870786352760234" opacity="0.23824982549832452" transform="matrix(1.131835996055485,-0.5305160487987977,0.5305160487987977,1.131835996055485,382.8698542713098,-293.5056561720784)" fill="none" stroke="#00a19d" filter="url(#bbburst-blur-3)"></use>
  <use xlink:href="#bbburst-shape-1" width="27.946608141523505" opacity="0.7901261639871394" transform="matrix(0.9126111042095795,-0.40882878136619993,0.40882878136619993,0.9126111042095795,279.04900997944014,-35.84588923898622)" fill="#00a19d"></use>
  <use xlink:href="#bbburst-shape-4" width="48.51141395538258" opacity="0.4102238292090592" transform="matrix(0.9999268331535389,0.012096625129958048,-0.012096625129958048,0.9999268331535389,479.46137005880354,-246.51275454997617)" fill="#00a19d" filter="url(#bbburst-blur-2)"></use>
  <use xlink:href="#bbburst-shape-10" width="49.72650842598532" opacity="0.39562772359127085" transform="matrix(0.8627531637598005,0.5056253340394001,-0.5056253340394001,0.8627531637598005,444.0050034547352,-192.73372431865414)" fill="none" stroke="#ffa6d5" filter="url(#bbburst-blur-2)"></use>
  <use xlink:href="#bbburst-shape-6" width="35.15641668916707" opacity="0.7003127893217667" transform="matrix(0.9996094757631885,-0.027944515820525102,0.027944515820525102,0.9996094757631885,251.4711629084936,-61.318603305319925)" fill="#2c2891" filter="url(#bbburst-blur-1)"></use>
  <use xlink:href="#bbburst-shape-10" width="34.56414488339411" opacity="0.7357989938901324" transform="matrix(0.8330850881503651,-0.5531448597804182,0.5531448597804182,0.8330850881503651,280.6427601265144,101.01727830022213)" fill="none" stroke="#2c2891" filter="url(#bbburst-blur-1)"></use>
  <use xlink:href="#bbburst-shape-10" width="39.148328174706364" opacity="0.20094384482766237" transform="matrix(1.1932152247659658,-0.3724747338903752,0.3724747338903752,1.1932152247659658,473.31821838089763,192.57560264756546)" fill="none" stroke="#00a19d" filter="url(#bbburst-blur-3)"></use>
  <use xlink:href="#bbburst-shape-1" width="38.73910683137522" opacity="0.18226277637997867" transform="matrix(1.1714700929896968,0.4360708901436911,-0.4360708901436911,1.1714700929896968,432.11460521518035,-424.9791186838563)" fill="#00a19d" filter="url(#bbburst-blur-3)"></use>
  <use xlink:href="#bbburst-shape-1" width="34.71462639450158" opacity="0.6905729490448943" transform="matrix(0.9918116873252151,-0.12770895381730213,0.12770895381730213,0.9918116873252151,203.19218557352838,59.13055773569789)" fill="#00a19d" filter="url(#bbburst-blur-1)"></use>
  <use xlink:href="#bbburst-shape-1" width="63.698244454578386" opacity="0.14975161206490628" transform="matrix(1.2343957126016212,0.19689394279849215,-0.19689394279849215,1.2343957126016212,104.88472948045214,-285.59751530587556)" fill="#00a19d" filter="url(#bbburst-blur-3)"></use>
  <use xlink:href="#bbburst-shape-4" width="50.337115367874034" opacity="0.11111367858027987" transform="matrix(1.157883724663016,-0.47096207932327333,0.47096207932327333,1.157883724663016,-161.40334738285893,153.04055976328596)" fill="#00a19d" filter="url(#bbburst-blur-3)"></use>
  <use xlink:href="#bbburst-shape-4" width="30.21860073242649" opacity="0.674002273506928" transform="matrix(0.997295671495208,0.07349383387007412,-0.07349383387007412,0.997295671495208,443.6433917554968,143.7384714240779)" fill="#2c2891" filter="url(#bbburst-blur-1)"></use>
  <use xlink:href="#bbburst-shape-10" width="30.931233971706085" opacity="0.39992018071080715" transform="matrix(0.9695727811791445,0.24480323118075614,-0.24480323118075614,0.9695727811791445,687.1966907362574,185.0002353709204)" fill="none" stroke="#ff5c58" filter="url(#bbburst-blur-2)"></use>
  <use xlink:href="#bbburst-shape-4" width="39.66819689596186" opacity="0.4515729041150197" transform="matrix(0.79672685452593,0.6043395728207922,-0.6043395728207922,0.79672685452593,402.9736417277782,175.20518309865218)" fill="#ffa6d5" filter="url(#bbburst-blur-2)"></use>
  <use xlink:href="#bbburst-shape-4" width="45.03714163297718" opacity="-0.045999580317149125" transform="matrix(1.741632048921298,-0.1709321683306027,0.1709321683306027,1.741632048921298,615.0605851608334,-635.4541054318845)" fill="#ffbd9b" filter="url(#bbburst-blur-4)"></use>
  <use xlink:href="#bbburst-shape-10" width="45.91855770980206" opacity="0.39484082373127083" transform="matrix(0.8093285295153162,-0.5873562218216266,0.5873562218216266,0.8093285295153162,406.1934978917535,171.64304644805657)" fill="none" stroke="#ffbd9b" filter="url(#bbburst-blur-2)"></use>
  <use xlink:href="#bbburst-shape-4" width="23.66543298014481" opacity="0.7931321607509557" transform="matrix(0.9874566614530195,0.15789028390644205,-0.15789028390644205,0.9874566614530195,506.97839995197,77.89970274208116)" fill="#00a19d"></use>
  <use xlink:href="#bbburst-shape-8" width="34.30584416415754" opacity="0.4302532190889813" transform="matrix(0.9462836030485283,-0.3233378149884349,0.3233378149884349,0.9462836030485283,94.2414043768612,227.21351653558258)" fill="none" stroke="#00a19d" filter="url(#bbburst-blur-2)"></use>
  <use xlink:href="#bbburst-shape-8" width="58.105026489409354" opacity="0.23636347955765125" transform="matrix(1.0310160379348092,-0.7067573342535667,0.7067573342535667,1.0310160379348092,-245.86374609084945,92.14419786366756)" fill="none" stroke="#2c2891" filter="url(#bbburst-blur-3)"></use>
  <use xlink:href="#bbburst-shape-6" width="55.19087452573221" opacity="0.11370729663687551" transform="matrix(1.2326328403862319,-0.20764460214840655,0.20764460214840655,1.2326328403862319,622.0657719692784,-297.2074958610236)" fill="#2c2891" filter="url(#bbburst-blur-3)"></use>
  <use xlink:href="#bbburst-shape-6" width="30.07721686309653" opacity="0.40717400712921503" transform="matrix(0.7877812080849116,0.6159551673525252,-0.6159551673525252,0.7877812080849116,892.6139752325803,8.080299417469746)" fill="#ffa6d5" filter="url(#bbburst-blur-2)"></use>
  <use xlink:href="#bbburst-shape-4" width="42.057300904682585" opacity="0.5718769701884336" transform="matrix(0.8328889728919826,0.5534401131422788,-0.5534401131422788,0.8328889728919826,411.52249340926267,43.83903193270106)" fill="#2c2891" filter="url(#bbburst-blur-1)"></use>
  <use xlink:href="#bbburst-shape-1" width="35.2907485211112" opacity="0.10672622422059597" transform="matrix(1.5604995450198302,0.7920487169315424,-0.7920487169315424,1.5604995450198302,874.9594879150221,118.39714396202532)" fill="#ff5c58" filter="url(#bbburst-blur-4)"></use>
  <use xlink:href="#bbburst-shape-10" width="27.24943370582131" opacity="0.8591069542065067" transform="matrix(0.9760559849035396,0.21751945736871728,-0.21751945736871728,0.9760559849035396,411.0682050963147,16.40624895098472)" fill="none" stroke="#ffa6d5"></use>
  <use xlink:href="#bbburst-shape-6" width="44.46814431266595" opacity="0.45171361017855893" transform="matrix(0.8460948815395269,0.5330323174373331,-0.5330323174373331,0.8460948815395269,785.0966076868308,-106.84618996596996)" fill="#2c2891" filter="url(#bbburst-blur-2)"></use>
  <use xlink:href="#bbburst-shape-1" width="35.063379042972684" opacity="0.32644594673644467" transform="matrix(1.1469054252364719,-0.4970995328534797,0.4970995328534797,1.1469054252364719,287.771655703893,233.70366189680715)" fill="#ff5c58" filter="url(#bbburst-blur-3)"></use>
  <use xlink:href="#bbburst-shape-8" width="32.023508914584674" opacity="0.637471449026217" transform="matrix(0.8443052498511975,-0.5358625244162042,0.5358625244162042,0.8443052498511975,229.86338149749096,-81.72486091978524)" fill="none" stroke="#2c2891" filter="url(#bbburst-blur-1)"></use>
  <use xlink:href="#bbburst-shape-4" width="36.86922451008881" opacity="0.32996339075786174" transform="matrix(1.182925245051531,0.4039651774841184,-0.4039651774841184,1.182925245051531,453.60124841349625,208.36521504615268)" fill="#2c2891" filter="url(#bbburst-blur-3)"></use>
  <use xlink:href="#bbburst-shape-8" width="44.16452961606707" opacity="0.13257875065230507" transform="matrix(1.2498738536890057,0.017758092932341284,-0.017758092932341284,1.2498738536890057,722.8641525673145,85.31455334092567)" fill="none" stroke="#ffa6d5" filter="url(#bbburst-blur-3)"></use>
  <use xlink:href="#bbburst-shape-6" width="57.194701717346305" opacity="-0.0583776887388594" transform="matrix(1.746908877082576,0.10396814497764768,-0.10396814497764768,1.746908877082576,49.59788719972075,-633.1673180668143)" fill="#ff5c58" filter="url(#bbburst-blur-4)"></use>
  <use xlink:href="#bbburst-shape-6" width="21.264532741582325" opacity="0.863955171637593" transform="matrix(0.9027843734889816,-0.43009344912949693,0.43009344912949693,0.9027843734889816,278.3072531499351,31.02038213350039)" fill="#2c2891"></use>
</svg>