<svg xmlns="http://www.w3.org/2000/svg" version="1.1" xmlns:xlink="http://www.w3.org/1999/xlink" xmlns:svgjs="http://svgjs.dev/svgjs" viewBox="0 0 800 800" opacity="0.7"><defs><linearGradient x1="50%" y1="0%" x2="50%" y2="100%" id="uundulate-grad"><stop stop-color="hsl(37, 99%, 67%)" stop-opacity="1" offset="45%"></stop><stop stop-color="hsl(316, 73%, 52%)" stop-opacity="1" offset="100%"></stop></linearGradient></defs><g stroke-width="2" stroke="url(#uundulate-grad)" fill="none"><path d="M670.993904262596 409.23306626991075C687.801602752159 576.8247946664134 650.9053944470171 690.5876740584511 575.6558482408652 772.6709714485607C500.40630203471346 854.7542688386702 401.7084195727882 838.987578754773 309.7960824730674 803.2328937424377C217.88374537334664 767.4782087301023 156.85507259504305 697.0978484353741 134.4766301622064 601.048483389351C112.09818772936973 504.99911834332784 127.27492018529375 474.03298490569387 202.3795587954515 342.19594152152627C277.4841974056093 210.3588981373589 397.3509068519745 -45.73539251056593 494.97889549096294 -31.76932485465244C592.6068841299514 -17.803257198738947 654.1862057730328 241.64133787340802 670.993904262596 409.23306626991075C687.801602752159 576.8247946664134 650.9053944470171 690.5876740584511 575.6558482408652 772.6709714485607 "></path><path d="M658.6760009105496 408.81341334420097C674.7197131051327 568.787335904499 639.5006051774972 677.3791753241712 567.6714928898068 755.7314137420033C495.84238060211646 834.0836521598353 401.63076552482414 819.0336298070238 313.8962619296361 784.9041577497949C226.16175833444805 750.7746856925658 167.90711613697647 683.5934326839615 146.5458756329051 591.9099478673031C125.18463512883375 500.2264630506447 139.6715161094885 470.66788113290306 211.36230751009361 344.8234306298341C283.05309891069874 218.97898012676524 397.47132156404746 -25.474660946254005 490.66167435580905 -12.143414547427483C583.8520271475709 1.1878318513990394 642.6322887159668 248.83949078390287 658.6760009105496 408.81341334420097C674.7197131051327 568.787335904499 639.5006051774972 677.3791753241712 567.6714928898068 755.7314137420033 "></path><path d="M646.3580822997144 408.3938519712257C661.6378081993172 560.749968695319 628.0958006491882 664.1707681426261 559.6871222799592 738.7919475881804C491.2784439107303 813.4131270337343 401.553096218071 799.0797724120096 317.9964261274157 766.5755133098864C234.4397560367604 734.0712542077636 178.95914442012082 670.0891084852833 158.61510584481476 582.7715038979896C138.2710672695087 495.45389931069576 152.06809677489417 467.30286891284663 220.34504096594668 347.4510112908763C288.6219851569992 227.59915366890584 397.5917210173312 -5.213837829207648 486.3444379618661 7.482587312531848C575.0971549064012 20.1790124542714 631.0783564001115 256.03773524713233 646.3580822997144 408.3938519712257C661.6378081993172 560.749968695319 628.0958006491882 664.1707681426261 559.6871222799592 738.7919475881804 "></path><path d="M634.040163688879 407.97413801035964C648.5559032935017 552.7124488982483 616.6909961208792 650.9622083731899 551.7027516701116 721.8523288464664C486.7145072193441 792.742449319743 401.47542691131787 779.1257624291043 322.0965903251954 748.2467162820874C242.7177537390728 717.3676701350705 190.01117270326517 656.5846316987144 170.68433605672442 573.6329073407853C151.35749941018366 490.6811829828564 164.46467744029985 463.9377041048997 229.32777442179975 350.07843936402776C294.19087140329964 236.21917462315582 397.712120470615 15.046832699948027 482.02720156792327 27.10843658460061C566.3422826652316 39.17004046925314 619.5244240842565 263.23582712247094 634.040163688879 407.97413801035964C648.5559032935017 552.7124488982483 616.6909961208792 650.9622083731899 551.7027516701116 721.8523288464664 "></path><path d="M621.7222755956218 407.55445456707184C635.4740289052644 544.6749596187558 605.2862221101482 637.7536791213322 543.7184115778422 704.912740622331C482.1506010455362 772.0718021233297 401.39778812214286 759.1717829637773 326.1967850405531 729.9179497718665C250.99578195896328 700.6641165799559 201.06323150398765 643.0801854297237 182.7535967862122 564.4943413011594C164.44396206843675 485.90849717259493 176.86128862328366 460.57256981453077 238.31053839523094 352.70589795475735C299.75978816717816 244.83922609498404 397.832550441477 35.307533746681884 477.70999569155845 46.73431637424744C557.5874409416399 58.161099001813 607.9705222859793 270.4339495153878 621.7222755956218 407.55445456707184C635.4740289052644 544.6749596187558 605.2862221101482 637.7536791213322 543.7184115778422 704.912740622331 "></path><path d="M609.4043722435756 407.1346795710497C622.3921392582379 536.6373787865289 593.8814328406282 624.54505831674 535.7340562267837 687.973060845461C477.58667961293907 751.4010633741821 401.32013407417867 739.2177119457159 330.29696449712173 711.5890917089114C259.2737949200647 683.9604714721069 212.11527504592107 629.5756476079986 194.82284225691092 555.355683708799C177.53040946790077 481.1357198095993 189.2578845474784 457.20734397142746 247.29328710987306 355.3332649927527C305.32868967226767 253.45918601407777 397.95296515354994 55.56814324068131 473.3927745564047 66.3601046111599C548.8325839592594 77.15206598163849 596.4166052289132 277.63198035557025 609.4043722435756 407.1346795710497C622.3921392582379 536.6373787865289 593.8814328406282 624.54505831674 535.7340562267837 687.973060845461 "></path><path d="M597.0864536327401 406.71499612776165C609.3102343524224 528.5998895070364 582.4766283123192 611.336529064882 527.7496856169361 671.0334726213254C473.0227429215529 730.7304161777687 401.24246476742553 719.2637324803887 334.3971286949013 693.2603251986903C267.5517926223771 667.256917916992 223.16730332906542 616.0712013390078 206.89207246882057 546.2171176691729C190.61684160857573 476.36303399933786 201.65446521288408 453.84220968105865 256.27602056572607 357.96072358348226C310.8975759185681 262.0792374859059 398.0733646068337 75.82884428741511 469.0755381624617 85.98598440080673C540.0777117180896 96.14312451419835 584.8626729130581 284.830102748487 597.0864536327401 406.71499612776165C609.3102343524224 528.5998895070364 582.4766283123192 611.336529064882 527.7496856169361 671.0334726213254 "></path><path d="M584.768565539483 406.2953737196301C596.2283599641851 520.5624612627001 571.0718543015884 598.1280608481804 519.7653455246666 654.0939454323461C468.45883674774495 710.0598300165117 401.1648259782505 699.309814050218 338.497323410259 674.9316197236258C275.82982084226757 650.5534253970336 234.2193621297879 602.5668161051733 218.96133319830835 537.0786126647031C203.7033042668288 471.59040922423287 214.05107639586788 450.47713642584597 265.25878453915726 360.5882432093681C316.46649268244664 270.69934999289035 398.1937945776957 96.08960636930522 464.7583322860969 105.61192522560987C531.3228699944982 115.13424408191446 573.3087711147809 292.0282861765602 584.768565539483 406.2953737196301C596.2283599641851 520.5624612627001 571.0718543015884 598.1280608481804 519.7653455246666 654.0939454323461 "></path><path d="M572.4506469286478 405.8756902763423C583.1464550583696 512.5249719832077 559.6670497732794 584.9195315963227 511.7809749148191 637.1543572082105C463.8949000563589 689.3891828200984 401.0871566714974 679.355834584891 342.59748760803865 656.602853213405C284.10781854457997 633.8498718419189 245.27139041293225 589.0623698361826 231.030563410218 527.940046625077C216.78973640750377 466.8177234139714 226.44765706127356 447.11200213547704 274.2415179950103 363.2157018000978C322.0353789287471 279.31940146471845 398.3141940309795 116.35030741603902 460.44109589215395 125.2378050152567C522.5679977533284 134.12530261447438 561.7548387989258 299.2264085694769 572.4506469286478 405.8756902763423C583.1464550583696 512.5249719832077 559.6670497732794 584.9195315963227 511.7809749148191 637.1543572082105 "></path><path d="M560.1327435766015 405.45594579789827C570.0645654113432 504.4874216685589 548.2622605037594 571.7109413093084 503.7966195637606 620.2147079489187C459.3309786237618 668.7184745885288 401.0095026235333 659.4017940844076 346.69766706460734 638.2740256680277C292.3858315056814 617.1462572516477 256.32343395486566 575.5578625320356 243.09980888091673 518.8014195502947C229.8761838069678 462.0449765685539 238.8442529854683 443.74680680995186 283.22426670965245 365.84309935567114C327.6042804338366 287.93939190139037 398.4346087430524 136.61094742761657 456.12387475700007 144.86362376974728C513.8131407709479 153.116300111878 550.2009217418597 306.4244699272375 560.1327435766015 405.45594579789827C570.0645654113432 504.4874216685589 548.2622605037594 571.7109413093084 503.7966195637606 620.2147079489187 "></path><path d="M547.8148402245552 405.03626235461036C556.9826757643168 496.44993238906636 536.8574712342395 558.5024120574506 495.8122642127021 603.275119724783C454.76705719116467 648.0478273921156 400.9318485755691 639.4478146190806 350.797846521176 619.945259157807C300.6638444667828 600.4427036965332 267.375477496799 562.0534162630449 255.16905435161544 509.6628535106687C242.9626312064318 457.27229075829246 251.24084890966304 440.38167251958293 292.2070154242946 368.47055794640073C333.17318193892606 296.5594433732185 398.55502345512537 156.87164847435042 451.8066536218463 164.4895035593941C505.0582837885672 172.10735864443785 538.6470046847935 313.62259232015435 547.8148402245552 405.03626235461036C556.9826757643168 496.44993238906636 536.8574712342395 558.5024120574506 495.8122642127021 603.275119724783 "></path><path d="M535.496936872509 404.6165941701116C543.9007861172904 488.4124583683629 525.4526819647194 545.2938980643818 487.82790886164355 586.3355467594366C450.20313575856767 627.3771954544914 400.85419452760505 619.4938504125428 354.8980259777446 601.6165079063751C308.94185742788426 583.7391654002074 278.42752103873244 548.5489852528433 267.23829982231416 500.5243027298318C256.04907860589583 452.49962020682017 263.6374448338578 437.0165534880032 301.1897641389367 371.0980317959194C338.7420834440156 305.1795101038357 398.6754381671982 177.13236477987328 447.4894324866924 184.11539860783C496.3034268061866 191.09843243578678 527.0930876277273 320.82072997186026 535.496936872509 404.6165941701116C543.9007861172904 488.4124583683629 525.4526819647194 545.2938980643818 487.82790886164355 586.3355467594366 "></path><path d="M523.1790335204627 404.19689546803465C530.818896470264 480.3749538300814 514.0478926951996 532.0853535537349 479.843553510585 569.3959432765121C445.63921432597067 606.706532999289 400.77654047964097 599.5398556884267 358.9982054343133 583.2877261373651C317.21987038898567 567.0355965863037 289.47956458066585 535.0445237250635 279.3075452930129 491.38572143141664C269.13552600535985 447.72691913776976 276.0340407580526 433.6514039388452 310.17251285357884 373.72547512786C344.3109849491051 313.7995463168748 398.7958528792711 197.39305056781802 443.1722113515385 203.74126313868783C487.548569823806 210.08947570955758 515.5391705706612 328.01883710598804 523.1790335204627 404.19689546803465C530.818896470264 480.3749538300814 514.0478926951996 532.0853535537349 479.843553510585 569.3959432765121 "></path><path d="M510.86113016841637 403.77718150716873C517.7370068232376 472.3374340330107 502.64310342567956 518.8767937842989 471.8591981595266 552.4563245347983C441.07529289337356 586.0358552852977 400.6988864316769 579.5858457055215 363.098384890882 564.958929109566C325.49788335008714 550.3320125136108 300.53160812259927 521.5400469384947 291.37679076371154 482.24712487421243C282.22197340482387 442.9542028099303 288.4306366822473 430.28623913089814 319.1552615682209 376.3529032010115C349.87988645419455 322.41956727112483 398.91626759134397 217.65372109697375 438.85499021638475 223.36711241075653C478.7937128414254 229.0805037245393 503.9852535135951 335.2169289813267 510.86113016841637 403.77718150716873C517.7370068232376 472.3374340330107 502.64310342567956 518.8767937842989 471.8591981595266 552.4563245347983 "></path><path d="M498.54322681637007 403.35752858145895C504.6551171762112 464.2999752710964 491.2383141561596 505.6682950500192 463.874842808468 535.5167668282409C436.51137146077645 565.3652386064625 400.62123238371277 559.6318967577724 367.19856434745066 546.6301931169232C333.77589631118855 533.6284894760742 311.5836516645327 508.035631187082 303.44603623441026 473.1085893521646C295.30842080428783 438.18154751724705 300.82723260644207 426.92113535810745 328.13801028286304 378.98039230931926C355.44878795928406 331.03964926053106 399.03668230341685 237.91445266128568 434.53776908123086 242.9930227179815C470.0388558590448 248.0715927746773 492.43133645652904 342.4150818918216 498.54322681637007 403.35752858145895C504.6551171762112 464.2999752710964 491.2383141561596 505.6682950500192 463.874842808468 535.5167668282409 "></path><path d="M486.2253234643239 402.9378298793821C491.5732275291848 456.2624707328148 479.8335248866397 492.4597505393723 455.89048745740956 518.5771633453162C431.94745002817945 544.6945761512602 400.5435783357487 539.6779020336564 371.2987438040193 528.3014113479135C342.05390927228996 516.9249206621704 322.6356952064661 494.53116965930224 315.515281705109 463.97000805374944C308.39486820375186 433.40884644819664 313.2238285306368 423.55598580894946 337.12075899750516 381.60783564125984C361.0176894643736 339.65968547357016 399.15709701548974 258.1751384492304 430.220547946077 262.61888724883926C461.2839988766642 267.0626360484481 480.87741939946295 349.6131890259494 486.2253234643239 402.9378298793821C491.5732275291848 456.2624707328148 479.8335248866397 492.4597505393723 455.89048745740956 518.5771633453162 "></path><path d="M473.9074201122776 402.5181159185161C478.4913378821584 448.2249509357441 468.42873561711974 479.2511907699362 447.90613210635104 501.63754460360246C427.38352859558233 524.0238984372687 400.46592428778456 519.7238920507513 375.398923260588 509.9726143201144C350.3319222333914 500.22133658947746 333.6877387483995 481.0266928727334 327.5845271758077 454.83141149654534C321.4813156032159 428.63613012035717 325.62042445483155 420.1908210010024 346.1035077121473 384.2352637144113C366.58659096946303 348.2797064278202 399.2775117275627 278.43580897838615 425.90332681092315 282.244736520908C452.5291418942836 286.05366406342984 469.32350234239675 356.8112809012881 473.9074201122776 402.5181159185161C478.4913378821584 448.2249509357441 468.42873561711974 479.2511907699362 447.90613210635104 501.63754460360246 "></path><path d="M461.58951676023133 402.0984172164392C465.409448235132 440.18744639746257 457.0239463475998 466.0426462592893 439.9217767552925 484.6979411206779C422.81960716298533 503.3532359820664 400.3882702398205 499.76989732663515 379.4991027171567 491.6438325511044C358.60993519449283 483.5177677755737 344.7397822903329 467.52223134495364 339.6537726465064 445.6928301981302C334.5677630026799 423.86342905130675 338.0170203790263 416.82567145184447 355.0862564267894 386.8627070463519C372.15549247455255 356.8997426408593 399.3979264396355 298.6964947663309 421.58610567576926 301.8706010517658C443.774284911903 305.04470733720063 457.7695852853306 364.0093880354159 461.58951676023133 402.0984172164392C465.409448235132 440.18744639746257 457.0239463475998 466.0426462592893 439.9217767552925 484.6979411206779 "></path><path d="M449.27161340818503 401.6787490319404C452.3275585881056 432.14997237675914 445.6191570780798 452.83413226622054 431.937421404234 467.75836815533137C418.2556857303882 482.6826040444422 400.3106161918564 479.81593312009716 383.5992821737253 473.31508129967256C366.88794815559424 466.814229479248 355.79182583226634 454.01780033475194 351.72301811720513 436.55427941729323C347.6542104021439 419.09075849983446 350.41361630322103 413.46055242026466 364.06900514143155 389.4901808958706C377.724393979642 365.51980937147647 399.51834115170846 318.9572110718538 417.26888454061543 321.4964961002017C435.0194279295224 324.0357811285496 446.2156682282645 371.20752568712174 449.27161340818503 401.6787490319404C452.3275585881056 432.14997237675914 445.6191570780798 452.83413226622054 431.937421404234 467.75836815533137 "></path><path d="M436.9537100561388 401.2590655886526C439.2456689410792 424.1124830972666 434.21436780855987 439.62560301436264 423.9530660531755 450.81877993119576C413.69176429779117 462.0119568480289 400.2329621438923 459.86195365477016 387.699461630294 454.98631478945174C375.1659611166957 450.11067592413326 366.84386937419976 440.51335406576123 363.79226358790385 427.4157133776672C360.74065780160794 414.3180726895731 362.8102122274158 410.09541812989573 373.0517538560736 392.1176394866002C383.2932954847315 374.13986084330463 399.63875586378134 339.2179121185876 412.95166340546155 341.1223758898485C426.2645709471418 343.0268396611095 434.6617511711984 378.4056480800386 436.9537100561388 401.2590655886526C439.2456689410792 424.1124830972666 434.21436780855987 439.62560301436264 423.9530660531755 450.81877993119576 "></path><path d="M424.63580670409254 400.83938214536477C426.1637792940528 416.0749938177741 422.8095785390399 426.4170737625048 415.968710702117 433.8791917070602C409.1278428651941 441.34130965161563 400.1553080959282 439.9079741894431 391.79964108686266 436.6575482792308C383.4439740777971 433.40712236901857 377.89591291613317 427.0089077967705 375.86150905860256 418.2771473380411C373.82710520107196 409.54538687931176 375.2068081516105 406.73028383952686 382.03450257071574 394.7450980773298C388.86219698982103 382.7599123151328 399.7591705758542 359.4786131653214 408.6344422703077 360.7482556794954C417.5097139647612 362.01789819366934 423.10783411413223 385.60377047295543 424.63580670409254 400.83938214536477C426.1637792940528 416.0749938177741 422.8095785390399 426.4170737625048 415.968710702117 433.8791917070602 "></path><path d="M412.31790335204624 400.41968344328785C413.0818896470264 408.0374892794925 411.40478926951994 413.20852925185784 407.9843553510585 416.93958822413555C404.56392143259706 420.67064719641326 400.0776540479641 419.95397946532705 395.89982054343136 418.3287665102209C391.7219870388986 416.70355355511475 388.9479564580666 413.5044462689907 387.9307545293013 409.138566039626C386.913552600536 404.77268581026135 387.60340407580526 403.36513429036887 391.0172512853579 397.37254140927035C394.4310984949105 391.37994852817184 399.8795852879271 379.7392989532662 404.3172211351539 380.37412021035317C408.7548569823806 381.00894146744014 411.55391705706614 392.80187760708316 412.31790335204624 400.41968344328785C413.0818896470264 408.0374892794925 411.40478926951994 413.20852925185784 407.9843553510585 416.93958822413555 "></path></g></svg>