<svg xmlns="http://www.w3.org/2000/svg" version="1.1" xmlns:xlink="http://www.w3.org/1999/xlink" xmlns:svgjs="http://svgjs.dev/svgjs" viewBox="0 0 800 800" opacity="0.7"><defs><linearGradient x1="50%" y1="0%" x2="50%" y2="100%" id="uundulate-grad"><stop stop-color="hsl(37, 99%, 67%)" stop-opacity="1" offset="45%"></stop><stop stop-color="hsl(316, 73%, 52%)" stop-opacity="1" offset="100%"></stop></linearGradient></defs><g stroke-width="2" stroke="url(#uundulate-grad)" fill="none"><path d="M674.9262770725649 348.21960971538795C678.8086533188647 410.9028412885359 528.5707563754834 464.21964941998385 425.3358698576253 535.771027245487C322.10098333976737 607.3224050709899 233.1291245060762 719.8002056466562 179.39882178684684 691.6662232778023C125.66851906761747 663.5322409089484 174.92898292743922 521.7966406328156 167.4304168053241 400.7279118749883C159.931850683209 279.659183117161 93.55777792776513 145.08557444452566 143.4057044006948 110.53632524023152C193.2536308736244 75.98707603593738 295.9670112354137 185.37416476205254 406.70046387538673 234.89151569437678C517.4339165153599 284.40886662670096 671.0439008262653 285.53637814224 674.9262770725649 348.21960971538795C678.8086533188647 410.9028412885359 528.5707563754834 464.21964941998385 425.3358698576253 535.771027245487 "></path><path d="M662.4296253403958 350.5732998854626C666.1355299391364 410.4072936598311 522.7266283113634 461.3006105125769 424.18423663522617 529.5996529823751C325.641844959089 597.8986954521736 240.71416152692927 705.2638687289459 189.4261452949376 678.4087037404945C138.13812906294595 651.5535387520431 185.15948092913942 516.260465761189 178.0017587216659 400.69486103780844C170.8440365141924 285.12925631442783 107.48696706581416 156.672629854185 155.0690786990652 123.69380106826787C202.65119033231622 90.71497228235074 300.69578067766054 195.12992061182433 406.39589456127123 242.39648286540654C512.0960084448818 289.66304511898875 658.7237207416551 290.73930611109404 662.4296253403958 350.5732998854626C666.1355299391364 410.4072936598311 522.7266283113634 461.3006105125769 424.18423663522617 529.5996529823751 "></path><path d="M649.9329888670156 352.92692902038107C653.4624218181973 409.9116849959702 516.8825155060324 458.3815105700137 423.0326186716161 523.4282176841074C329.1827218371998 588.4749247982011 248.2992138065714 690.7274707760795 199.45348406181745 665.1511231680305C150.60775431706344 639.5747755599816 195.38999418962868 510.7242298544063 188.57311589679676 400.66174916547243C181.75623760396485 290.59926847653844 121.41617146265224 168.2596242286881 166.73246825622465 136.85121586114798C212.04876504979705 105.44280749360786 305.42456537869634 204.8856154264398 406.0913405059447 249.90138900128005C506.7581156331928 294.9171625761203 646.4035559158342 295.94217304479207 649.9329888670156 352.92692902038107C653.4624218181973 409.9116849959702 516.8825155060324 458.3815105700137 423.0326186716161 523.4282176841074 "></path><path d="M637.4363371348466 355.28055815529956C640.7892984384691 409.4160763321091 511.0383874419124 455.4624106274505 421.88098544921695 517.2567823858395C332.7235834565214 579.0511541442286 255.88425082742447 676.191072823213 209.48080756990822 651.8935425955665C163.07736431239192 627.5960123679199 205.62049219132888 505.18799394762345 199.14445781313856 400.6286372931362C192.66842343494824 296.069280638649 135.34536060070127 179.8466186031912 178.39584255459505 150.00863065402808C221.44632450848883 120.17064270486497 310.1533348209432 214.6413102410553 405.7867711918291 257.4062951371535C501.42020756271484 300.1712800332517 634.0833758312241 301.1450399784899 637.4363371348466 355.28055815529956C640.7892984384691 409.4160763321091 511.0383874419124 455.4624106274505 421.88098544921695 517.2567823858395 "></path><path d="M624.9396854026775 357.6342483253742C628.1161750587409 408.92052870340444 505.1942593777924 452.5433717200435 420.7293522268178 511.0854081227279C336.264445075843 569.6274445254122 263.46928784827753 661.6547359055028 219.508131077999 638.6360230582587C175.5469743077204 615.6173102110147 215.85099019302908 499.65181907599685 209.7157997294804 400.5955864559563C203.58060926593168 301.5393538359158 149.2745497387503 191.43367401285053 190.05921685296545 163.16610648206444C230.84388396718066 134.89853895127834 314.88210426319006 224.39706609082708 405.48220187771346 264.91126230818327C496.08229949223687 305.42545852553945 621.763195746614 306.34796794734405 624.9396854026775 357.6342483253742C628.1161750587409 408.92052870340444 505.1942593777924 452.5433717200435 420.7293522268178 511.0854081227279 "></path><path d="M612.4430336705083 359.9879079778708C615.4430516790126 408.4249505571215 499.3501313136725 449.62430229505844 419.57771900441867 504.9140033420381C339.80530669516475 560.2037043890177 271.0543248691306 647.1183684702144 229.53545458608977 625.3784730033728C188.0165843030489 603.6385775365311 226.08148819472933 494.11561368679213 220.2871416458222 400.5625051011983C214.49279509691507 307.0093965156045 163.20373887679932 203.02069890493175 201.7225911513359 176.32355179252266C240.24144342587243 149.62640468011358 319.61087370543686 234.15279142302074 405.17763256359785 272.4161989616349C490.7443914217589 310.67960650024906 609.443015662004 311.5508653986201 612.4430336705083 359.9879079778708C615.4430516790126 408.4249505571215 499.3501313136725 449.62430229505844 419.57771900441867 504.9140033420381 "></path><path d="M599.94636667955 362.3415371127892C602.7699130404953 407.92934189326047 493.5059879907635 446.70520235249535 418.42607052323035 498.74256804377023C343.3461530556973 550.7799337350452 278.63934663119466 632.581970517348 239.56276283539148 612.1208924309087C200.48617903958825 591.6598143444696 236.31197093764047 488.5793777800093 230.85846830337493 400.5293932288623C225.4049656691094 312.4794086777151 177.13291275605928 214.60769327943484 213.38595019091724 189.48096658540277C249.63898762577514 164.35423989137064 324.3396278888946 243.90848623763623 404.8730479906932 279.9211050975084C485.4064680924919 315.9337239573806 597.1228203186049 316.753732332318 599.94636667955 362.3415371127892C602.7699130404953 407.92934189326047 493.5059879907635 446.70520235249535 418.42607052323035 498.74256804377023 "></path><path d="M587.44973020617 364.6951967652858C590.0968049195561 407.43376374697755 487.66187518543256 443.78613292751027 417.2744525596203 492.5711632630805C346.88702993380804 541.3561935986507 286.2243989108368 618.0456030820596 249.59010160227126 598.8633423760228C212.9558042937058 579.681081669986 246.54248419812973 483.04317239080467 241.4298254785058 400.4963118741042C236.31716675888185 317.9494513574038 191.06211715289737 226.19471817151606 225.0493397480767 202.638411895861C259.036562343256 179.08210562020588 329.0684125899305 253.66421156982983 404.56849393536663 287.42604175096005C480.06857528080286 321.18787193209016 584.8026554927837 321.956629783594 587.44973020617 364.6951967652858C590.0968049195561 407.43376374697755 487.66187518543256 443.78613292751027 417.2744525596203 492.5711632630805 "></path><path d="M574.95309373279 367.04885641778236C577.4236967986169 406.93818560069474 481.8177623801016 440.8670635025252 416.1228345960102 486.3997584823908C350.4279068119188 531.9324534622563 293.8094511904789 603.5092356467712 259.6174403691511 585.605792321137C225.42542954782334 567.7023489955027 256.772997458619 477.50696700160006 252.00118265363665 400.4632305193462C247.2293678486543 323.4194940370925 204.99132154973552 237.78174306359728 236.71272930523617 215.79585720631923C268.4341370607369 193.80997134904112 333.7971972909664 263.4199369020235 404.2639398800402 294.93097840441163C474.73068246911396 326.44201990679977 572.4824906669628 327.15952723487 574.95309373279 367.04885641778236C577.4236967986169 406.93818560069474 481.8177623801016 440.8670635025252 416.1228345960102 486.3997584823908 "></path><path d="M562.4564572594098 369.4025160702789C564.7505886776778 406.4426074544118 475.97364957477066 437.9479940775401 414.9712166324 480.22835370170105C353.96878369002945 522.5087133258619 301.39450347012104 588.9728682114828 269.64477913603093 572.348242266251C237.8950548019409 555.7236163210192 267.00351071910825 471.97076161239534 262.5725398287675 400.4301491645882C258.14156893842676 328.8895367167812 218.9205259465736 249.3687679556785 248.37611886239563 228.95330251677746C277.8317117782177 208.53783707787636 338.52598199200224 273.1756622342171 403.95938582471365 302.43591505786327C469.39278965742506 331.6961678815094 560.1623258411419 332.362424686146 562.4564572594098 369.4025160702789C564.7505886776778 406.4426074544118 475.97364957477066 437.9479940775401 414.9712166324 480.22835370170105 "></path><path d="M549.9598055272406 371.75617572277554C552.0774652979496 405.947029308129 470.12952151065065 435.02892465255513 413.81958341000086 474.0569489210113C357.50964530935113 513.0849731894675 308.9795404909741 574.4365007761945 279.6721026441217 559.0906922113652C250.3646647972693 543.7448836465358 277.23400872080845 466.4345562231906 273.1438817451093 400.3970678098303C269.05375476941015 334.35957939646994 232.84971508462263 260.9557928477597 260.039493160766 242.11074782723563C287.2292712369095 223.2657028067116 343.2547514342491 282.93138756641076 403.65481651059804 309.9408517113149C464.054881586947 336.95031585621905 547.8421457565317 337.5653221374221 549.9598055272406 371.75617572277554C552.0774652979496 405.947029308129 470.12952151065065 435.02892465255513 413.81958341000086 474.0569489210113 "></path><path d="M537.4631537950715 374.109804857694C539.4043419182215 405.45142064426796 464.28539344653075 432.1098247099919 412.6679501876017 467.8855136227435C361.05050692867275 503.661202535495 316.56457751182717 559.9001028233281 289.6994261522125 545.8331116389011C262.8342747925978 531.7661204544743 287.46450672250864 460.89832031640776 283.7152236614511 400.36395593749415C279.96594060039354 339.8295915585805 246.77890422267166 272.5427872222628 271.7028674591364 255.26816262011573C296.62683069560126 237.99353801796872 347.9835208764959 292.68708238102624 403.3502471964824 317.44575784718836C458.716973516469 342.2044333133505 535.5219656719216 342.76818907112 537.4631537950715 374.109804857694C539.4043419182215 405.45142064426796 464.28539344653075 432.1098247099919 412.6679501876017 467.8855136227435 "></path><path d="M524.9665020629024 376.46346451019053C526.7312185384932 404.9558424979851 458.44126538241073 429.19075528500684 411.5163169652026 461.71410884205375C364.5913685479944 494.23746239910054 324.14961453268023 545.3637353880397 299.72674966030326 532.5755615840153C275.3038847879263 519.7873877799908 297.6950047242089 455.36211492720315 294.28656557779294 400.3308745827362C290.878126431377 345.2996342382692 260.7080933607207 284.129812114344 283.3662417575069 268.42560793057396C306.0243901542931 252.72140374680396 352.7122903187427 302.4428077132199 403.0456778823669 324.95069450064C453.37906544599093 347.45858128806015 523.2017855873116 347.97108652239604 524.9665020629024 376.46346451019053C526.7312185384932 404.9558424979851 458.44126538241073 429.19075528500684 411.5163169652026 461.71410884205375 "></path><path d="M512.4698503307333 378.8171241626871C514.0580951587649 404.4602643517022 452.5971373182907 426.27168586002176 410.36468374280344 455.542704061364C368.13223016731604 484.81372226270605 331.7346515535333 530.8273679527514 309.75407316839403 519.3180115291293C287.7734947832547 507.80865510550734 307.9255027259091 449.8259095379984 304.85790749413474 400.29779322797816C301.7903122623604 350.7696769179579 274.6372824987697 295.71683700642524 295.0296160558773 281.5830532410322C315.42194961298486 267.44926947563914 357.44105976098956 312.19853304541357 402.74110856825126 332.45563115409163C448.04115737551297 352.7127292627697 510.8816055027015 353.173983973672 512.4698503307333 378.8171241626871C514.0580951587649 404.4602643517022 452.5971373182907 426.27168586002176 410.36468374280344 455.542704061364 "></path><path d="M499.97319859856407 381.17075329760553C501.38497177903673 403.9646556878412 446.7530092541708 423.3525859174586 409.21305052040424 449.37126876309605C371.6730917866377 475.38995160873355 339.31968857438636 516.290969999885 319.7813966764848 506.0604309566653C300.2431047785832 495.82989191344575 318.1560007276093 444.2896736312156 315.42924941047653 400.2646813556421C312.70249809334376 356.2396890800685 288.56647163681873 307.30383138092833 306.6929903542477 294.7404680339123C324.81950907167663 282.17710468689626 362.16982920323636 321.95422786002905 402.43653925413565 339.96053728996515C442.703249305035 357.96684671990124 498.5614254180915 358.37685090736994 499.97319859856407 381.17075329760553C501.38497177903673 403.9646556878412 446.7530092541708 423.3525859174586 409.21305052040424 449.37126876309605 "></path><path d="M487.476546866395 383.52444346768027C488.71184839930845 403.46910805913643 440.9088811900508 420.43354701005165 408.0614172980051 443.19989449998445C375.2139534059594 465.9662419899172 346.9047255952394 501.7546330821747 329.8087201845756 492.80291141935754C312.71271477391167 483.8511897565404 328.3864987293095 438.7534987595891 326.0005913268183 400.23163051846217C323.61468392432715 361.7097622773353 302.49566077486776 318.89088679058773 318.3563646526181 307.89794386194865C334.2170685303684 296.9050009333096 366.89859864548316 331.7099837098008 402.1319699400201 347.4655044609949C437.365341234557 363.221025212189 486.2412453334814 363.57977887622405 487.476546866395 383.52444346768027C488.71184839930845 403.46910805913643 440.9088811900508 420.43354701005165 408.0614172980051 443.19989449998445 "></path><path d="M474.9798951342258 385.87808786138777C476.0387250195803 402.9735146540645 435.0647531259308 417.51446232627757 406.9097840756059 437.02847446050566C378.754815025281 456.54248659473376 354.48976261609255 487.2182503880972 339.83604369266635 479.5453461056826C325.18232476924015 471.8724418232679 338.6169967310097 433.2172781115953 336.5719332431601 400.19853390491517C334.52686975531054 367.17978969823497 316.4248499129168 330.4778964238799 330.0197389509885 321.0553739136178C343.61462798906024 311.6328514033558 371.62736808773 341.4656937832054 401.8274006259045 354.9704258556574C432.02743316407896 368.4751579281095 473.92106524887134 368.78266106871104 474.9798951342258 385.87808786138777C476.0387250195803 402.9735146540645 435.0647531259308 417.51446232627757 406.9097840756059 437.02847446050566 "></path><path d="M462.4832586608457 388.23173225509527C463.3656168986411 402.4779212489925 429.2206403205999 414.5953776425034 405.7581661119958 430.8570544210269C382.29569190339174 447.11873119955027 362.0748148957347 472.68186769401984 349.86338245954613 466.28778079200765C337.65195002335764 459.8936938899954 348.84750999149895 427.6810574636016 347.143290418291 400.1654372913681C345.439070845083 372.6498171191346 330.3540543097549 342.06490605717204 341.68312850814795 334.212803965287C353.0122027065411 326.360701873402 376.3561527887659 351.22140385661 401.52284657057794 362.47534725032C426.68954035239 373.7292906440301 461.60090042305035 373.985543261198 462.4832586608457 388.23173225509527C463.3656168986411 402.4779212489925 429.2206403205999 414.5953776425034 405.7581661119958 430.8570544210269 "></path><path d="M449.98660692867657 390.58537664880276C450.6924935189129 401.9823278439206 423.37651225647994 411.6762929587293 404.6065328895967 424.685634381548C385.8365535227134 437.6949758043668 369.65985191658774 458.1454849999425 359.8907059676369 453.03021547833265C350.1215600186861 447.9149459567229 359.07800799319915 422.1448368156078 357.71463233463277 400.13234067782105C356.3512566760664 378.11984454003425 344.2832434478039 353.6519156904642 353.34650280651834 347.37023401695615C362.40976216523285 341.08855234344816 381.08492223101274 360.9771139300145 401.2182772564624 369.9802686449826C421.35163228191203 378.9834233599506 449.2807203384403 379.18842545368494 449.98660692867657 390.58537664880276C450.6924935189129 401.9823278439206 423.37651225647994 411.6762929587293 404.6065328895967 424.685634381548 "></path><path d="M437.48993993771836 392.9390363012993C438.0193548803956 401.4867496976377 417.53236893357087 408.75722353374425 403.4548844084084 418.5142296008583C389.37739988324597 428.27123566797235 377.24487367865174 443.60911756465407 369.9180142169386 439.77266542344677C362.59115475522555 435.9362132822394 369.30849073611034 416.6086314264031 368.28595899218556 400.09925932306305C367.26342724826077 383.5898872197229 358.21241732706386 365.2389405825454 365.00986184609974 360.5276793274144C371.80730636513556 355.81641807228334 385.8136764144705 370.73283926220813 400.9136926835577 377.4852052984342C416.01370895264495 384.23757133466023 436.96052499504117 384.391322904961 437.48993993771836 392.9390363012993C438.0193548803956 401.4867496976377 417.53236893357087 408.75722353374425 403.4548844084084 418.5142296008583 "></path><path d="M424.9932882055492 395.29269595379594C425.3462315006674 400.99117155135485 411.6882408694509 405.83815410875917 402.3032511860093 412.3428248201686C392.91826150256765 418.8474955315779 384.8299106995048 429.0727501293658 379.9453377250294 426.5151153685609C375.06076475055403 423.957480607756 379.53898873781054 411.07242603719845 378.85730090852735 400.06617796830506C378.17561307924416 389.05992989941166 372.1416064651129 376.8259654746266 376.67323614447014 373.6851246378726C381.2048658238274 370.5442838011186 390.5424458567173 380.4885645944018 400.6091233694421 384.9901419518858C410.6758008821669 389.49171930936984 424.64034491043105 389.59422035623703 424.9932882055492 395.29269595379594C425.3462315006674 400.99117155135485 411.6882408694509 405.83815410875917 402.3032511860093 412.3428248201686 "></path><path d="M412.49665173216914 397.6463556062925C412.6731233797282 400.49559340507193 405.84412806411996 402.91908468377414 401.15163322239914 406.1714200394788C396.4591383806783 409.4237553951835 392.41496297914694 414.5363826940774 389.9726764919092 413.25756531367495C387.5303900046715 411.97874793327253 389.7695019982998 405.53622064799373 389.4286580836582 400.03309661354706C389.0878141690166 394.52997257910033 386.070810861951 388.41299036670785 388.3366257016296 386.84256994833083C390.6024405413082 385.2721495299538 395.2712305577532 390.24428992659546 400.3045693141156 392.4950786053374C405.337908070478 394.74586728407945 412.32018008461006 394.797117807513 412.49665173216914 397.6463556062925C412.6731233797282 400.49559340507193 405.84412806411996 402.91908468377414 401.15163322239914 406.1714200394788 "></path></g></svg>