<svg width="145" height="142" viewBox="0 0 145 142" fill="none" xmlns="http://www.w3.org/2000/svg">
<ellipse cx="72.0699" cy="71" rx="72.0699" ry="71" fill="#65558F"/>
<mask id="mask0_51_21" style="mask-type:alpha" maskUnits="userSpaceOnUse" x="0" y="0" width="145" height="142">
<ellipse cx="72.0699" cy="71" rx="72.0699" ry="71" fill="white"/>
</mask>
<g mask="url(#mask0_51_21)">
<path d="M91.0519 97.8044C90.8129 96.9485 90.1632 96.1293 89.3367 96.3525C89.1002 96.4163 87.8903 96.7842 87.9227 96.9019L89.1724 101.52C89.2047 101.635 89.3615 101.593 89.4014 101.584C90.9349 101.169 91.4104 99.0821 91.0519 97.8044V97.8044Z" fill="white"/>
<path d="M106.093 74.7242C108.045 72.2668 107.333 67.894 106.725 65.7113C106.661 65.4759 106.486 64.853 106.476 64.8162C105.911 62.7904 103.905 61.6991 102.401 62.4005C102.722 63.8622 103.559 65.9419 103.952 67.3447C104.55 69.4881 105.301 72.6347 106.096 74.7242H106.093Z" fill="white"/>
<path d="M121.089 58.8444C121.089 58.8444 121.177 59.1559 121.196 59.2343C121.557 60.5194 122.053 61.6844 122.362 62.94L122.451 62.9572C122.491 62.9474 122.66 62.9425 122.698 62.9327C122.732 62.9229 122.767 62.9081 122.8 62.8959C122.581 61.4293 122.359 59.9676 122.14 58.5011C121.824 58.582 121.505 58.6629 121.187 58.734L121.089 58.8444V58.8444Z" fill="white"/>
<path d="M91.5522 108.377C91.5124 108.387 91.4452 108.448 91.4576 108.485L92.8044 113.162C92.8368 113.279 92.9936 113.235 93.0733 113.216C95.7569 112.527 95.5328 110.506 95.3138 109.731C95.1196 109.034 94.5644 107.352 91.5522 108.377V108.377Z" fill="white"/>
<path d="M111.266 97.824C111.142 97.2329 110.126 92.8406 108.899 93.1349C108.826 93.027 108.789 93.0392 108.709 93.0588C107.885 93.282 106.621 93.9148 106.808 96.6983C106.842 97.2722 107.169 98.8933 107.178 98.9301C107.211 99.0453 107.515 100.129 107.622 100.517C107.686 100.75 107.99 101.836 108.065 102.106C109.138 106.398 110.303 107.999 111.291 107.899C111.328 107.886 111.408 107.867 111.448 107.855C111.839 107.749 112.227 106.854 112.249 106.636C112.576 104.173 111.938 100.223 111.289 97.8976C111.289 97.8976 111.279 97.8583 111.269 97.8191L111.266 97.824Z" fill="white"/>
<path d="M133.9 126.932C132.72 126.898 131.538 126.92 130.353 126.918C130.034 120.983 129.546 115.06 128.956 109.145C128.715 109.395 128.436 109.586 128.1 109.677C126.643 110.072 124.968 110.275 123.539 110.454C122.867 110.471 122.892 110.256 122.391 109.974C122.13 109.792 121.737 109.9 121.627 109.515L121.607 109.436C122.521 108.021 125.043 99.1729 125.18 98.3022L113.146 87.3152L113.113 87.1974C113.068 87.0429 113.049 86.9669 113.233 86.8737C113.315 86.8541 113.785 86.7241 113.902 86.6922C115.906 86.1502 118.421 85.3017 120.191 84.8235C121.401 84.6199 121.762 85.6058 122.516 86.1919L126.693 89.8437C126.165 85.8756 125.608 81.9099 125.033 77.9443L123.377 78.4617C123.093 78.6628 122.528 78.7757 122.292 78.8394C122.135 78.8836 121.567 78.9939 121.45 79.0258C121.251 79.0798 121 78.94 120.87 78.7658C119.543 74.474 114.637 60.7205 113.288 54.967C113.175 54.8714 113.143 54.7561 113.111 54.6384C112.827 53.6255 118.017 51.9579 121.032 51.0529C120.761 49.2086 120.497 47.3595 120.231 45.5128C119.909 45.6011 118.045 46.1627 117.408 46.3368C116.922 46.4668 115.61 46.766 115.555 46.7807L115.326 46.7881C114.196 42.1185 113.551 35.0285 108.799 32.7673C108.124 32.4362 107.154 32.0708 106.452 32.2596C106.452 32.2596 106.098 32.2424 106.091 32.4166C106.237 32.9488 106.827 35.4773 106.977 36.007C106.992 36.0609 107.094 36.4337 107.124 36.5392C107.315 37.2308 107.671 37.8782 107.866 38.5698C108.505 40.8555 108.914 43.1486 109.621 45.4735C109.994 48.0609 107.054 49.601 104.843 50.1994C104.52 50.2877 103.656 50.5207 103.549 50.5502C103.33 50.609 102.548 50.7071 102.424 50.6826C102.369 50.6973 101.769 50.6311 101.595 50.6213C101.54 50.636 101.455 50.5452 101.455 50.5452C101.386 50.506 101.288 50.3613 101.288 50.3613L90.7257 14.6116C90.5639 14.0255 94.7213 12.4976 95.0872 12.3431C95.142 12.3284 95.8963 12.1248 96.1104 12.066C96.3817 11.9948 97.029 11.8183 97.0838 11.8011C97.1908 11.7717 98.2762 11.7079 98.3832 11.6785C99.9018 11.497 99.9989 11.6417 100.41 12.9022C100.437 13.0077 100.467 13.1156 100.497 13.2211L100.512 13.275C100.601 13.5938 100.569 13.8906 100.659 14.207C101.074 15.6956 101.682 17.248 102.15 18.722C102.419 19.6809 103.648 24.0929 103.917 25.0518L104.308 26.0328C104.39 26.126 104.54 26.0279 104.592 26.0132C105.67 25.7213 106.892 22.8176 107.156 21.8881C107.851 19.1806 108.124 15.7913 107.35 13.0249C107.084 12.0684 106.586 11.1168 106.317 10.1604C106.302 10.104 106.16 9.79987 106.322 9.75572L115.336 7.31306C115.53 7.2591 115.685 7.29344 115.807 7.36947C115.727 6.33943 115.633 5.30939 115.56 4.27935C115.984 4.19842 116.414 4.1322 116.837 4.04637C117.823 3.84772 117.639 2.54055 116.656 2.543C116.25 2.543 115.844 2.56507 115.438 2.56998C115.389 1.80726 115.324 1.04699 115.279 0.28182C115.259 -0.0835981 114.629 -0.100766 114.617 0.27201C114.592 1.04209 114.619 1.81707 114.607 2.58714C97.8505 2.84465 81.0045 5.49087 64.4099 7.56566C47.5439 9.67479 30.4788 12.2278 13.8867 16.0365C13.807 15.6049 13.7423 15.1732 13.6626 14.7441C13.568 14.2413 12.8386 14.3296 12.866 14.8372C12.8909 15.3081 12.9282 15.779 12.9531 16.2499C12.0644 16.4583 11.1682 16.6521 10.282 16.8654C9.88614 16.9635 9.7766 17.6404 10.2695 17.6478C11.1931 17.6698 12.1142 17.6674 13.0403 17.6551C13.4112 23.7986 13.9116 29.9396 14.4792 36.0757C16.1844 35.6367 18.1287 35.1462 20.3791 34.5895C20.9094 34.614 21.4795 35.205 21.6139 35.6833C22.2089 37.8096 22.9233 40.5931 23.1822 42.7537C22.4703 44.1492 19.7294 44.3209 18.2905 44.9953C18.1834 45.0247 17.942 45.2038 17.942 45.2038C17.9843 45.3632 18.0266 45.9248 18.0714 46.0842L18.0864 46.1381C19.3933 50.8175 22.9632 62.1503 25.2559 68.2791C25.3281 68.5439 25.3431 69.6279 25.2012 69.9517C24.4294 71.764 22.54 72.2766 20.7052 72.7745C20.5434 72.8186 20.3816 72.8603 20.2198 72.9044C19.6124 73.0688 19.0373 73.1987 18.5145 73.2134C18.6539 74.4127 18.7934 75.6095 18.9303 76.8088C18.995 77.3802 19.0572 77.9565 19.122 78.5304C19.8763 78.2067 20.6579 77.9345 21.4247 77.726C21.467 77.7162 22.0396 77.6451 22.0794 77.6328L22.1192 77.6205C28.3354 76.7327 33.6404 85.52 32.7492 98.3292C32.5923 98.832 32.4853 99.3642 32.2886 99.8792C31.0787 102.091 29.0125 103.533 26.4434 104.227C24.9672 104.627 23.4187 104.693 21.9923 104.352C22.2163 106.28 22.4479 108.21 22.6843 110.138C24.646 109.424 27.6856 108.563 34.6536 106.834C35.0419 106.856 35.4577 107.286 35.5548 107.634C35.9854 109.184 36.5082 111.207 36.6949 112.782C36.1746 113.795 34.1781 113.92 33.1325 114.413C33.0529 114.432 32.8786 114.565 32.8786 114.565C32.911 114.68 32.9433 115.087 32.9732 115.205L32.9832 115.244C33.9366 118.653 36.5356 126.905 38.206 131.366C38.2608 131.56 38.2682 132.352 38.1662 132.588C37.6061 133.907 36.2294 134.28 34.8901 134.643C34.7731 134.675 34.6536 134.707 34.5366 134.739C33.2794 135.08 32.184 135.251 31.7509 133.701L31.0165 131.067L28.303 122.096C27.942 121.402 26.3115 116.178 25.836 116.139C25.7862 116.112 25.4601 116.156 25.3431 116.188C25.1439 116.22 24.2676 116.492 23.5258 116.725C24.5191 124.154 25.6542 131.56 27.0757 138.913C26.0575 138.999 25.0493 139.062 24.0585 139.079C23.5407 139.087 23.6428 139.874 24.1531 139.864C25.1813 139.847 26.2069 139.803 27.235 139.771C27.3047 140.129 27.3645 140.492 27.4342 140.85C27.5338 141.346 28.2806 141.267 28.2308 140.757C28.1985 140.419 28.1686 140.083 28.1412 139.747C62.0922 138.643 95.4731 130.847 129.307 128.244C129.409 129.019 129.516 129.792 129.613 130.567C129.69 131.163 130.569 131.045 130.544 130.457C130.509 129.691 130.455 128.929 130.417 128.161C131.57 128.075 132.725 127.98 133.878 127.906C134.438 127.872 134.46 126.945 133.893 126.927L133.9 126.932ZM63.5236 23.0138C63.5759 22.9991 63.9568 22.8961 64.009 22.8814C64.1161 22.8519 64.4397 22.7661 64.4397 22.7661C65.3882 22.6238 69.5107 21.7925 70.4044 21.6649C71.8831 21.5497 72.5229 23.4332 73.5884 24.1199L78.6246 30.305C79.0527 30.5919 79.0278 30.7121 79.3614 31.08C79.6154 31.3546 81.475 33.6502 81.7662 33.8586C82.6475 34.9377 83.3943 36.1615 84.4349 36.9708C84.3901 36.8114 84.1536 35.9579 84.0914 35.747C83.4391 33.4074 82.4757 31.2075 81.8235 28.8703C81.7787 28.7084 81.6443 28.2302 81.6293 28.1787C81.0343 25.4221 80.2078 22.6704 79.5581 19.931C79.5606 19.5288 79.9191 19.1462 80.2825 18.9893C80.646 18.8348 81.9903 18.2413 82.2069 18.1849C82.2616 18.1702 83.825 17.7459 84.3652 17.5987C84.9054 17.4516 87.5094 16.8041 87.4994 17.3805C87.8106 18.4963 87.9998 19.5901 88.296 20.6521C88.4305 21.1327 88.5848 21.8906 88.881 22.3246L90.1432 26.8445C90.2253 26.9377 90.4145 27.4013 90.4444 27.5092C90.4569 27.5607 90.4693 28.0144 90.4842 28.0683C90.4992 28.1198 90.7108 28.4656 90.7257 28.5171L90.7407 28.5711L90.7556 28.625C90.7855 28.733 90.7805 29.1327 90.8129 29.2406L91.6418 32.2179C91.6219 32.5662 91.6966 32.8335 91.7862 33.1523C93.0484 37.6722 94.8906 41.9788 96.1203 46.3908C96.2249 46.7611 96.7054 48.6912 96.8099 49.0639C97.0838 50.2485 96.3942 51.5238 95.2914 51.9358C95.1295 51.9799 95.0897 52.0486 94.9279 52.0928C93.0733 52.9389 91.0045 53.8438 89.0055 54.3858C88.4155 54.5452 87.955 54.1553 87.6463 53.6672C87.4098 53.4465 86.536 52.1958 86.2871 51.9211C85.3909 50.7905 80.8153 45.6231 79.8618 44.5097C79.7622 44.365 78.6992 43.0505 78.5872 42.8543C78.4329 42.7243 78.0819 42.3025 78.0296 42.3172L77.9225 42.3466L79.4959 47.9849C79.822 48.5269 79.8743 48.9094 80.0211 49.4416C80.3199 50.506 80.5066 51.5998 80.8028 52.6617C80.9049 53.032 81.119 53.3778 81.2385 53.8021C81.7289 55.5556 80.2004 56.5415 78.7988 56.9217L74.2655 58.1504C73.8872 58.2509 73.1104 58.1773 72.9636 57.6452L63.4265 23.904C63.3668 23.6907 63.302 23.2517 63.5286 23.0187L63.5236 23.0138ZM91.1813 84.046C91.0817 83.6953 90.4369 81.6916 90.4245 81.6549C90.3822 81.4979 90.0262 80.3796 89.9839 80.2226C89.9615 80.1441 89.7947 79.3937 89.7623 79.2784C89.7524 79.2392 89.7399 79.1999 89.7399 79.1999C89.7075 79.0847 89.4511 78.3146 89.4188 78.1969C89.2769 77.6917 88.6645 75.3446 88.5101 74.7977L84.9353 61.6868C84.9154 61.6083 84.7486 61.319 84.7237 61.2405C84.7237 61.2405 84.7137 61.2037 84.7038 61.162C84.5071 60.463 85.8614 60.1369 86.312 59.7641L88.764 59.097C88.8014 59.0872 89.6478 59.07 89.9739 59.021C90.2328 59.0357 90.4469 59.1853 90.7033 59.2C91.2809 59.1289 91.3008 59.2074 91.4427 59.7126C91.4526 59.7518 91.4626 59.7935 91.4726 59.8279C92.0053 61.7383 92.4509 63.6292 92.8019 65.5029C94.43 71.1779 96.4415 77.9246 97.6912 83.6193C97.3924 84.3697 96.2 85.2821 95.4706 85.5616C94.323 85.8731 93.723 86.1625 92.7347 86.4298C92.2592 86.5598 91.714 86.2851 91.597 85.8584C91.5522 85.7014 91.5721 85.6131 91.5472 85.3679C91.4925 85.1742 91.241 84.2765 91.1788 84.0436L91.1813 84.046ZM53.2721 25.1622L56.6204 24.2547C56.6752 24.24 57.8278 24.213 58.2734 24.1493C58.6269 24.1689 58.9181 24.3749 59.2716 24.3921C60.0558 24.294 60.0857 24.4019 60.2774 25.0935C60.2923 25.1474 60.3073 25.2014 60.3222 25.2529C61.0491 27.8574 61.6565 30.4399 62.1395 33.0003C64.3601 40.7476 67.1059 49.9591 68.8137 57.7334C68.4054 58.761 66.7748 60.002 65.7815 60.3846C64.2157 60.8088 63.3942 61.2037 62.0474 61.5691C61.3976 61.7457 60.6558 61.3729 60.494 60.7868C60.4342 60.5734 60.4591 60.4557 60.4218 60.1197C60.3471 59.8524 60.0085 58.631 59.9164 58.3122C59.7845 57.834 58.9032 55.0995 58.8883 55.0431C58.8285 54.8297 58.3431 53.3043 58.2858 53.0909C58.256 52.9855 58.0269 51.9603 57.9821 51.8009C57.9697 51.747 57.9522 51.693 57.9522 51.693C57.9074 51.5336 57.5589 50.4815 57.5141 50.3245C57.3199 49.6329 56.4835 46.4275 56.2768 45.6844L51.3951 27.7863C51.3652 27.6808 51.1386 27.286 51.1088 27.1781C51.1088 27.1781 51.0938 27.1241 51.0789 27.0702C50.81 26.1137 52.6622 25.6698 53.2746 25.1597L53.2721 25.1622ZM63.185 74.371L63.195 74.4103C64.1509 77.8364 66.7649 86.1355 68.4452 90.626C68.5 90.8222 68.51 91.6143 68.4054 91.8522C67.8403 93.1815 66.4562 93.5567 65.1144 93.9197C64.9949 93.9491 64.8754 93.9834 64.7584 94.0153C63.4937 94.3587 62.3909 94.5303 61.9578 92.973L61.2184 90.3219L58.4875 81.3017C58.124 80.6052 56.4835 75.3496 56.0055 75.3103C55.9557 75.2833 55.6296 75.3299 55.5101 75.3618C55.1815 75.4084 53.0381 76.1147 52.6448 76.2226C52.3859 76.2104 52.0373 76.176 51.9402 75.8278C51.7884 74.528 50.8897 72.6764 50.5262 71.2245C50.5038 71.146 50.4939 71.1068 50.4715 71.0307C50.347 70.8959 50.3246 70.8174 50.2922 70.7021C50.2051 70.3906 50.9918 70.0105 51.298 69.8854C53.3468 68.9952 55.8039 68.2006 64.8754 65.9541C65.2637 65.9762 65.682 66.4078 65.779 66.7585C66.2147 68.3159 66.74 70.3539 66.9292 71.9357C66.4064 72.9559 64.3999 73.081 63.3469 73.5764C63.2672 73.5985 63.0929 73.7285 63.0929 73.7285C63.1253 73.8462 63.1552 74.2557 63.1875 74.3735L63.185 74.371ZM24.0112 35.953C24.0112 35.953 23.939 35.6882 23.9067 35.5803C23.7448 34.9941 23.7075 34.663 23.5557 33.9003C23.837 33.2529 24.9821 32.7722 25.6841 32.5809C25.7389 32.5662 26.0077 32.495 26.06 32.4803C26.3314 32.4068 28.3428 31.9187 28.6117 31.8451C28.6665 31.8304 29.1395 31.6465 29.244 31.6171C29.244 31.6171 29.6598 31.4478 29.8241 31.4037C30.7949 31.1388 31.8903 30.9009 32.8537 30.8102C33.1151 30.9132 33.3665 31.1879 33.5308 31.3718C33.5607 31.4773 33.7823 32.2743 33.8121 32.3822L38.1039 47.7519C38.1189 47.8034 38.1911 47.8426 38.1911 47.8426L42.8862 46.5698L42.9633 46.4324L39.7345 32.7795C39.6598 32.5122 39.493 32.3307 39.4184 32.0634C39.1819 31.2149 39.62 31.3228 39.8615 30.744C40.0731 30.457 40.3594 29.4074 40.8299 29.221C40.9917 29.1793 41.6389 29.0027 41.7485 28.9733C42.0173 28.8997 42.6646 28.7256 42.7194 28.7109C44.1533 28.4362 45.6345 27.9212 47.2252 28.0046C47.8028 28.1934 48.0493 28.8678 48.1986 29.4C48.3032 29.7728 48.3604 29.9862 48.2882 30.3491C48.4675 30.9868 55.4603 56.0339 55.2437 55.4625C55.4827 56.3135 56.4909 59.9309 56.7125 60.7279C56.7772 61.1669 56.349 61.5127 56.0852 61.8119C55.8437 61.9909 55.1018 62.6506 54.9151 62.815C54.4571 63.0529 52.1842 64.0682 51.7137 64.2546C51.6614 64.2693 50.9594 64.4581 50.7428 64.517C50.2549 64.647 48.2061 65.2037 47.9223 64.1957L45.3382 54.9425C45.3109 54.8346 44.9424 54.7659 44.9424 54.7659C44.3325 54.8714 41.6041 55.4968 40.9419 55.6194L40.7253 55.6783C40.0781 55.8548 40.5535 56.9266 40.6008 57.3141C40.7801 57.9517 41.5667 61.3974 41.8207 62.3024C41.8705 62.6874 42.2364 63.791 42.1941 64.2595C41.9675 66.7806 39.3785 67.482 37.2177 68.0682C36.192 68.3453 35.2485 68.7156 34.3648 68.0387C33.4512 64.9682 28.42 49.4563 24.0087 35.9506L24.0112 35.953ZM32.7467 81.4047C32.2687 79.6904 31.7683 77.9001 31.5268 76.1221C31.4397 75.3496 32.8761 75.1681 33.3516 75.043C33.4611 74.9719 34.2702 74.6678 34.4245 74.6261C34.4669 74.6138 35.1788 74.4225 35.4552 74.3489C36.2443 74.1356 37.6135 73.5519 38.2807 74.4201C38.2931 74.4593 38.4674 75.0822 38.5097 75.2367C38.8806 76.5635 39.1196 77.8781 39.4906 79.2048C40.0781 81.3066 40.8124 83.3299 41.3502 85.4047C41.4099 85.4709 41.5643 85.7211 41.5767 85.7603C41.6464 85.8682 41.97 86.8688 42.0422 86.9767C42.3509 87.7713 43.0978 88.6174 43.2172 89.5077C43.3741 89.7578 44.106 90.859 44.2603 91.1116C44.5765 91.4868 44.9698 91.6732 45.4129 91.889C45.7117 91.8915 45.9706 91.9062 46.2096 91.84C46.6825 91.71 46.6825 91.2489 46.6502 90.8394C46.6875 90.6628 46.6153 89.802 46.6029 89.5935C46.5481 89.3998 46.1996 88.1539 46.1473 87.9602C46.0179 87.4942 45.6893 86.3244 45.6693 86.2483C45.5523 85.9835 44.3798 83.1582 42.3609 76.0804C42.1119 75.1852 41.8381 74.2092 41.746 73.2723C41.8032 73.1718 41.9028 73.0638 41.97 73.0025C42.1269 72.9608 42.8389 72.7671 42.9982 72.7254C43.2745 72.6494 44.0263 72.4483 44.106 72.4237C44.6586 72.2741 47.4891 71.5899 48.0916 71.4673C48.2833 71.5409 48.4276 71.7542 48.4824 71.9504C49.1247 73.493 49.6599 75.1092 50.1279 76.7818C49.8665 75.8499 54.5741 89.1962 52.5153 93.8608C52.4854 93.9074 52.4556 94.2532 52.4257 94.3023C52.4456 94.3807 52.3784 94.4396 52.3784 94.4396L51.2332 96.4261C51.2034 96.4751 51.0391 96.6468 50.9619 96.6689C49.8143 97.4414 48.6716 97.9197 47.407 98.2605C43.8496 99.2244 41.6838 98.9325 39.1196 96.4433C38.7587 96.0778 38.6939 95.6781 38.4027 95.2538C38.3927 95.2146 38.196 94.9742 38.196 94.9742C37.7455 94.4249 37.5189 93.7725 37.2799 93.2109C36.802 91.9577 36.1672 90.7462 35.729 89.4832C35.1614 87.7517 34.5142 86.0399 33.8644 84.3305C33.4636 83.3495 33.0329 82.42 32.7492 81.4047H32.7467ZM60.6632 126.665C60.489 126.795 59.9463 127.276 59.8094 127.396C59.4758 127.57 57.8253 128.308 57.4817 128.443C57.4394 128.455 56.9291 128.593 56.7747 128.634C56.4187 128.73 54.9251 129.135 54.7209 128.401L52.8389 121.662C52.8165 121.584 52.5477 121.53 52.5477 121.53C52.107 121.608 50.1155 122.064 49.635 122.153L49.4782 122.194C49.0052 122.322 49.3512 123.104 49.3861 123.386C49.5155 123.852 50.0906 126.361 50.2748 127.021C50.3097 127.3 50.576 128.102 50.5462 128.446C50.3819 130.282 48.4924 130.798 46.9215 131.219C46.1747 131.423 45.4901 131.69 44.8453 131.197C44.1782 128.963 40.5162 117.665 37.3048 107.828C37.3048 107.828 37.2501 107.634 37.2301 107.555C37.1106 107.129 37.0858 106.886 36.9737 106.332C37.1804 105.858 38.0143 105.51 38.5247 105.37C38.5645 105.36 38.7611 105.306 38.7985 105.294C38.9952 105.24 40.4614 104.887 40.6581 104.833C40.6979 104.821 41.0415 104.688 41.1162 104.666C41.1162 104.666 41.4224 104.541 41.5394 104.509C42.2489 104.318 43.0455 104.144 43.745 104.08C43.9342 104.151 44.1184 104.355 44.2404 104.487C44.2628 104.566 44.4246 105.147 44.447 105.223L47.5713 116.416C47.5837 116.453 47.6335 116.48 47.6335 116.48L51.054 115.553L51.1113 115.455L48.7563 105.51C48.704 105.316 48.5795 105.181 48.5247 104.988C48.3505 104.367 48.6716 104.448 48.8509 104.026C49.0027 103.818 49.2118 103.053 49.5529 102.915C49.6699 102.883 50.1429 102.756 50.2225 102.734C50.4192 102.68 50.8922 102.555 50.9295 102.543C51.9726 102.344 53.053 101.969 54.2106 102.03C54.6288 102.167 54.8106 102.66 54.9176 103.048C54.9923 103.318 55.0371 103.472 54.9823 103.737C55.1118 104.203 60.2077 122.444 60.0459 122.03C60.2201 122.648 60.9545 125.282 61.1188 125.863C61.1686 126.184 60.8549 126.435 60.6632 126.653V126.665ZM78.5773 122.685L67.4893 126.148C67.208 126.349 66.6479 126.459 66.4114 126.525C66.2545 126.567 65.6944 126.677 65.5749 126.709C65.3782 126.763 65.1268 126.621 64.9949 126.449C63.6755 122.182 58.7987 108.505 57.4568 102.785C57.3448 102.692 57.3125 102.574 57.2801 102.459C56.8793 101.027 67.4893 98.2777 67.2304 98.263C68.2511 97.9859 70.4169 97.3997 70.8276 98.8712C70.9048 99.141 70.8874 99.396 70.9546 99.629C71.1488 100.326 71.6317 100.985 71.8358 101.721C72.0748 102.574 71.8458 103.259 71.5446 104.009C71.4077 104.424 71.0243 104.566 70.7206 104.691L70.6808 104.701C68.9805 105.579 67.1433 106.118 65.3135 106.53L65.2139 106.641C65.2139 106.641 65.3011 106.95 65.3235 107.028C65.6795 108.306 66.1724 109.461 66.4811 110.714L66.5707 110.731C66.608 110.722 66.7773 110.717 66.8196 110.707C67.5266 110.516 68.1988 110.042 68.9033 109.848C69.6875 109.635 70.3646 109.785 70.7679 110.469C70.8948 110.768 71.3803 112.053 71.455 112.323C71.4649 112.36 71.6765 112.97 71.7413 113.203C71.7836 113.358 71.918 113.986 71.9504 114.104C72.03 114.999 71.8856 115.536 71.0019 115.859C70.6484 115.955 68.9008 116.514 68.5871 116.598L68.4751 116.796C68.5398 117.027 69.0253 118.768 69.09 119.004L76.506 116.787C76.7027 116.733 76.9566 117.039 77.0413 117.184C77.5765 118.498 78.9034 121.432 78.5773 122.685V122.685ZM72.0723 82.6064C72.0723 82.6064 72.0176 82.4102 71.9952 82.3342C71.9852 82.2949 71.9304 82.1012 71.9304 82.1012L71.9877 82.0007L77.6163 80.6861C77.696 80.6641 77.8429 80.5831 77.8653 80.6616C77.8852 80.7376 77.92 80.8554 77.9524 80.9731C78.3084 82.0914 78.3159 84.8553 80.9746 83.7149C81.704 83.4353 81.704 82.2189 81.5422 81.6352C81.0294 79.8057 78.5623 79.3397 76.9168 78.7806C76.8147 78.7242 76.7649 78.6972 76.6629 78.6408C73.4639 77.5396 70.3422 76.4164 69.3962 73.0271C69.3862 72.9903 69.3937 72.8603 69.3937 72.8603C69.5356 72.6126 69.4858 72.5856 69.2742 72.4311C69.212 72.3649 68.9581 71.7616 68.9381 71.6831C68.9257 71.6439 68.8037 71.5114 68.8037 71.5114C68.8037 71.5114 68.7714 71.3937 68.7614 71.3545C67.5117 66.8738 71.6018 63.7126 75.9036 62.506C83.5238 60.3968 85.1668 67.4943 85.6448 71.3471C85.6647 71.4256 85.1295 71.4845 85.01 71.5163C84.8506 71.5605 84.4175 71.6782 84.4175 71.6782C83.6134 71.8548 81.0941 72.5783 80.2825 72.7156C79.929 72.8137 79.8518 72.539 79.7548 72.3551C79.7481 72.3289 79.7415 72.3028 79.7348 72.2766C79.6477 71.9651 79.2569 70.5623 79.1598 70.2116C78.881 69.3655 78.0097 68.2202 76.7824 68.5513C73.8175 69.3557 77.3251 72.929 79.1996 73.5543C79.5705 73.6622 79.9415 73.7726 80.2726 73.8903C84.6515 75.2613 89.4138 76.7769 87.6388 83.6708C87.3924 84.6174 87.1932 85.4243 86.5883 86.3023C85.4606 87.9038 83.7428 88.7499 81.7637 89.2845C76.6629 90.6652 74.2979 89.0442 72.0748 82.6089L72.0723 82.6064ZM100.776 112.627C100.738 112.804 100.342 113.954 100.258 114.101C100.24 114.189 100.166 114.834 100.138 114.883C100.108 114.932 99.7848 115.438 99.7674 115.526C99.74 115.575 99.6977 115.879 99.6977 115.879C99.6578 115.889 99.4662 116.11 99.3964 116.169C99.0305 116.519 98.5774 117.017 98.1492 117.299C96.8746 118.187 95.9461 118.648 94.4898 119.043C92.9563 119.457 91.368 119.678 89.832 119.928C89.0379 120.102 88.1043 120.107 87.8554 119.214C87.7907 118.984 87.8554 118.756 87.8006 118.562C87.7907 118.523 87.7782 118.486 87.7782 118.486C87.3824 117.674 87.1384 116.951 86.8895 116.058C86.3493 114.123 85.8763 112.127 85.3361 110.189C85.3037 110.074 85.249 109.88 85.249 109.88C85.2265 109.802 84.8208 108.956 84.7884 108.838C84.639 108.463 84.1138 106.731 84.0042 106.341C83.9943 106.302 83.8275 106.015 83.8076 105.939L83.7951 105.9C83.7852 105.861 83.7628 105.785 83.7628 105.785C83.7503 105.745 83.7453 105.414 83.7229 105.338L83.713 105.299C83.3645 104.061 82.8218 101.956 82.1994 100.791C82.1446 100.6 81.8733 99.629 81.811 99.396C81.7239 99.0895 81.4426 98.0815 81.4202 98.003C81.3032 97.5763 80.88 95.607 80.8078 95.2097C80.5862 94.5598 81.5521 93.6327 82.1421 93.4733L89.14 91.5751C89.2196 91.553 89.7125 91.504 89.842 91.5113C91.8758 91.374 93.8325 91.2612 95.386 92.5904C96.2249 93.3188 96.7377 94.0962 97.0315 95.1435C97.0638 95.2587 97.1485 95.5702 97.1485 95.5702C97.1211 95.6192 97.1261 96.2446 97.1385 96.2814C97.258 97.1667 97.4597 97.7357 97.1435 98.5696C97.1037 98.5818 96.9045 98.9276 96.8746 98.9791C96.897 99.0576 97.0763 99.5505 97.0589 99.6364C97.0688 99.6756 97.0514 99.7639 97.0365 99.8522C96.6357 101.294 95.8141 102.143 94.9503 103.293C94.9229 103.342 94.8358 103.492 94.8358 103.492C94.8457 103.823 96.6879 104.07 97.1808 104.316C98.6521 105.039 100.166 106.214 100.629 107.879C100.965 109.081 101.129 111.494 100.771 112.632L100.776 112.627ZM95.3013 63.7812C94.903 62.506 94.4151 61.2135 94.0442 59.8892C94.0217 59.8131 93.8599 59.2294 93.8276 59.1117C93.6757 58.5673 94.8657 58.4103 95.0922 58.3073C95.1719 58.2852 95.8291 57.9002 96.1253 57.7359C96.1651 57.7236 96.312 57.6427 96.3494 57.6329C97.2381 57.3092 97.7808 57.1203 98.5326 56.9168C102.446 55.8548 107.266 55.5973 110.23 58.6065C111.732 60.1712 112.772 62.5256 113.327 64.5121C113.392 64.7475 113.566 65.3704 113.566 65.3704C113.641 65.937 113.957 68.4483 113.98 68.9854C113.98 69.7407 113.975 70.7904 114.052 71.5237C114.062 71.5629 114.117 72.051 114.097 72.1417C114.079 72.23 113.683 72.799 113.666 72.8848C113.372 73.5102 113.616 73.7775 113.519 74.3465C113.492 74.398 113.25 74.7561 113.233 74.8443C113.245 74.8836 113.392 75.2613 113.365 75.3103C113.385 75.3888 113.108 75.7567 113.091 75.8474C112.854 76.8333 112.327 77.6843 111.739 78.4765C110.126 80.924 106.564 82.6432 103.718 83.4157C103.205 83.5555 101.361 83.8008 101.119 82.9449C101.109 82.9081 101.077 82.7904 101.077 82.7904C101.044 82.6726 100.808 81.5224 100.776 81.4047C100.776 81.4047 100.766 81.3655 100.756 81.3262C100.168 79.222 99.6354 77.7726 99.0878 75.661C98.9035 75.4599 98.8388 75.2269 98.7616 74.9523C98.5874 74.3293 98.5451 73.7137 98.3683 73.0908C98.1517 72.3109 97.7858 71.6144 97.5592 70.7978C97.3999 70.3784 97.3277 69.8119 97.0489 69.4244C96.8796 68.9682 96.2174 67.0528 96.0855 66.5869C95.9984 66.2754 95.3884 64.0927 95.3013 63.7812V63.7812ZM118.615 107.624C118.458 108.124 118.354 108.654 118.154 109.162C116.949 111.364 114.896 112.794 112.344 113.488C109.907 114.15 107.258 113.91 105.314 112.394C105.11 112.117 104.243 111.143 104.052 110.905C103.143 109.775 102.814 108.448 102.292 107.173L100.614 101.169C100.258 99.8914 99.9989 97.7529 99.9964 96.3795C100.004 96.252 100.031 94.5352 100.056 93.8633C100.186 90.0791 103.932 88.0632 107.355 87.1361C107.393 87.1263 107.968 87.0552 108.005 87.0454L108.045 87.0331C114.226 86.1502 119.499 94.8859 118.615 107.624V107.624Z" fill="white"/>
<path d="M22.1516 92.7793C23.2295 97.0981 24.4021 98.7094 25.3954 98.6064C25.4327 98.5941 25.5124 98.5745 25.5522 98.5622C25.9505 98.4543 26.3364 97.5543 26.3613 97.3384C26.6899 94.8614 26.0476 90.886 25.3954 88.5512C25.3954 88.5512 25.3854 88.5095 25.3729 88.4727C25.251 87.8768 24.2278 83.4599 22.9906 83.7542C22.9184 83.6487 22.8785 83.6585 22.7989 83.6806C21.9699 83.9038 20.7003 84.5439 20.8895 87.3397C20.9218 87.916 21.2504 89.5469 21.2579 89.5862C21.2928 89.7039 21.5965 90.7928 21.7035 91.1827C21.7707 91.4182 22.0744 92.5095 22.1516 92.7793Z" fill="white"/>
<path d="M116.394 18.5822C116.043 19.8182 115.829 21.1352 115.441 22.4424L115.401 22.511C114.863 23.286 114.741 23.8918 114.204 24.6668C113.539 25.817 112.715 26.614 112.005 27.6048L112.02 27.6588L112.035 27.7127C112.05 27.7642 112.12 27.8035 112.172 27.7888C114.443 27.7544 116.442 28.7207 118.169 30.2216C117.597 25.6502 117.076 21.0714 116.621 16.4902C116.514 17.1573 116.606 17.8685 116.397 18.5797L116.394 18.5822Z" fill="white"/>
<path d="M120.231 45.5128C120.231 45.5128 120.25 45.5079 120.253 45.5054C120.955 45.3141 124.288 44.3576 124.988 44.1688C125.014 44.1214 125.041 44.0756 125.068 44.0315C125.451 43.5287 125.361 43.2074 125.182 42.5698C124.104 38.7047 121.722 33.3117 118.167 30.2216C118.807 35.3227 119.499 40.419 120.231 45.5128V45.5128Z" fill="white"/>
<path d="M123.118 50.4177C123.193 50.4226 122.302 50.6703 121.032 51.0529C121.398 53.5348 121.767 56.0192 122.14 58.5011C123.661 58.116 125.17 57.6231 126.584 56.8947L126.623 56.8824C126.93 56.7598 127.313 56.6127 127.455 56.1982C127.756 55.4477 127.988 54.7537 127.749 53.8978C127.542 53.1571 127.059 52.4925 126.862 51.7935C126.798 51.5581 126.81 51.303 126.735 51.0308C126.325 49.552 124.149 50.1406 123.121 50.4202L123.118 50.4177Z" fill="white"/>
<path d="M124.366 69.0589L124.48 68.8603C124.796 68.7745 126.556 68.2153 126.91 68.1197C127.801 67.7935 127.943 67.2539 127.861 66.3514C127.831 66.2362 127.696 65.601 127.652 65.4465C127.587 65.2135 127.373 64.5979 127.36 64.5611C127.283 64.2864 126.798 62.9964 126.671 62.6948C126.267 62.0081 125.588 61.8585 124.794 62.0719C124.117 62.2558 123.472 62.6874 122.797 62.8959C123.552 67.9112 124.303 72.9265 125.028 77.9467L134.522 74.9792C134.851 73.7186 133.517 70.7683 132.977 69.4464C132.894 69.3017 132.638 68.9952 132.439 69.0491L124.983 71.2784C124.918 71.043 124.428 69.2919 124.361 69.0565L124.366 69.0589Z" fill="white"/>
<path d="M116.663 16.218C116.633 16.1101 116.783 15.6122 116.837 15.6C116.9 14.7833 116.561 14.1873 116.584 13.4393C116.673 11.47 116.633 10.2806 116.056 8.43385C116.021 8.10031 116.183 8.05616 116.111 7.78885C116.061 7.61227 115.959 7.45776 115.809 7.36702C116.046 10.4105 116.315 13.4516 116.621 16.4902C116.636 16.3995 116.641 16.3063 116.666 16.218H116.663Z" fill="white"/>
<path d="M139.486 100.468C137.415 98.6529 135.102 97.0319 133.233 95.038C133.223 94.9988 133.181 94.8442 133.168 94.8075C133.081 94.4984 133.121 94.4862 133.248 94.0349C133.347 93.1766 136.785 83.0773 136.529 80.9412C136.507 80.8627 136.514 80.7352 136.395 80.7671C136.004 80.875 134.117 81.3851 133.723 81.4905C132.504 81.8216 130.803 82.2385 129.539 82.707L127.612 90.6481L126.696 89.8461C127.55 96.2691 128.319 102.702 128.959 109.145C130.427 107.634 130.402 103.722 131.045 103.548L131.085 103.538C131.137 103.565 131.346 103.717 131.396 103.744L134.908 106.626C135.125 106.942 135.456 107.227 135.849 107.121L141.236 105.66C142.257 105.383 142.987 104.519 142.665 103.357C142.459 102.621 140.253 100.926 139.489 100.468H139.486Z" fill="white"/>
<path d="M22.5001 117.049C22.652 117.007 23.0652 116.877 23.5308 116.73C23.2395 114.535 22.9607 112.338 22.6918 110.138C22.1143 110.346 21.6239 110.545 21.1608 110.746C20.8571 110.869 20.0754 111.249 20.1625 111.558C20.1949 111.673 20.2173 111.752 20.3393 111.884C20.3592 111.96 20.3717 111.999 20.3916 112.078C20.7525 113.522 21.6463 115.364 21.7956 116.657C21.8902 117.005 22.2387 117.034 22.4976 117.049H22.5001Z" fill="white"/>
<path d="M15.3928 67.8621L16.4035 71.4795C16.7894 72.8578 17.5611 73.238 18.522 73.211C17.0931 60.8554 15.6368 48.4753 14.4866 36.0756C6.80921 38.0523 4.13804 38.9597 1.85025 39.953C1.43451 40.1247 0.359076 40.6421 0.478569 41.0689C0.523379 41.2283 0.55325 41.3337 0.720043 41.5177C0.749916 41.6231 0.764854 41.6771 0.794727 41.7825C1.29013 43.7641 2.51742 46.2926 2.72155 48.0658C2.85598 48.544 3.33147 48.5882 3.68746 48.6053C4.22518 48.4582 7.15027 47.4943 7.59837 47.433C7.76267 47.3889 8.20828 47.3251 8.2755 47.3619C8.93022 47.4134 11.1632 54.5894 11.6636 55.5409L15.3928 67.8572V67.8621Z" fill="white"/>
<path d="M21.9998 104.352C21.0015 95.7418 20.1029 87.1189 19.132 78.5255C16.4957 79.6561 14.1929 81.5322 14.0958 84.4899C14.0709 85.1643 14.0436 86.8909 14.0361 87.0184C14.0411 88.3991 14.3 90.55 14.6584 91.8351L16.3438 97.873C16.8716 99.1557 17.2027 100.49 18.1138 101.625C18.308 101.866 19.1793 102.847 19.3834 103.124C20.1626 103.732 21.0563 104.127 21.9998 104.35V104.352Z" fill="white"/>
<path d="M82.1845 137.471C88.4902 137.328 94.8931 136.247 101.147 135.462C108.077 134.594 115.05 133.792 121.806 132.002C121.983 131.955 121.953 131.661 121.762 131.678C115.237 132.254 108.784 133.395 102.294 134.273C95.6275 135.175 88.6819 135.626 82.1596 137.287C82.055 137.314 82.0774 137.473 82.1845 137.471V137.471Z" fill="white"/>
<path d="M12.4129 92.6027C12.1939 97.0269 15.1613 103.009 19.0523 105.292C19.1593 105.356 19.3137 105.223 19.2315 105.115C17.8374 103.266 16.3512 101.522 15.1961 99.5064C13.9464 97.3261 13.3514 94.9325 12.5424 92.588C12.5175 92.5168 12.4179 92.5316 12.4129 92.6051V92.6027Z" fill="white"/>
<path d="M121.699 30.5306C123.808 32.8874 125.331 34.7709 126.417 37.8022C127.348 40.4043 127.848 43.1756 128.525 45.8512C128.563 45.9959 128.782 45.9616 128.784 45.8169C128.866 41.2675 127.171 31.8451 121.782 30.3933C121.697 30.3712 121.647 30.4718 121.699 30.5306V30.5306Z" fill="white"/>
<path d="M20.9044 11.9066C29.4756 11.2885 38.1239 8.84343 46.6179 7.51173C57.6884 5.77783 68.861 4.72572 79.9166 2.92316C80.056 2.90109 80.0237 2.67546 79.8818 2.68036C69.0278 3.08011 58.1838 4.71837 47.4668 6.3934C38.7687 7.75453 29.1893 8.83116 20.887 11.8134C20.8397 11.8305 20.8422 11.9115 20.8995 11.9066H20.9044Z" fill="white"/>
<path d="M81.3804 2.9354C82.0451 3.20517 82.9936 3.09972 83.5487 2.64111C83.6433 2.56263 83.5562 2.44 83.4591 2.43019C82.8367 2.36643 81.9605 2.43755 81.3804 2.67544C81.251 2.72939 81.2485 2.8839 81.3804 2.9354V2.9354Z" fill="white"/>
</g>
</svg>
